<svg width="128" height="36" viewBox="0 0 128 36" fill="none" xmlns="http://www.w3.org/2000/svg">
<path d="M21.9726 30.0303H22.6442V31.6205H24.7863V30.0303H25.4656V33.7761H24.7863V32.2071H22.6442V33.7761H21.9648L21.9726 30.0303Z" fill="#BF7742"/>
<path d="M27.3871 33.5714C27.097 33.413 26.8565 33.1771 26.6924 32.8902C26.5277 32.5872 26.4414 32.2479 26.4414 31.9031C26.4414 31.5582 26.5277 31.2189 26.6924 30.9159C26.8561 30.6296 27.0968 30.395 27.3871 30.2386C27.6957 30.0721 28.0419 29.9877 28.3925 29.9935C28.7413 29.9874 29.0858 30.0719 29.3922 30.2386C29.6816 30.3956 29.9215 30.6301 30.085 30.9159C30.2497 31.2189 30.336 31.5582 30.336 31.9031C30.336 32.2479 30.2497 32.5872 30.085 32.8902C29.9211 33.1766 29.6814 33.4124 29.3922 33.5714C29.0863 33.7396 28.7416 33.8248 28.3925 33.8184C28.0417 33.8245 27.6952 33.7394 27.3871 33.5714ZM29.0391 33.06C29.2292 32.9489 29.3849 32.7872 29.4887 32.593C29.5957 32.3787 29.6514 32.1425 29.6514 31.9031C29.6514 31.6636 29.5957 31.4274 29.4887 31.2131C29.3848 31.0199 29.2291 30.8595 29.0391 30.75C28.8398 30.6435 28.6174 30.5879 28.3916 30.5879C28.1657 30.5879 27.9433 30.6435 27.7441 30.75C27.554 30.86 27.3978 31.0203 27.2925 31.2131C27.1834 31.4267 27.1266 31.6632 27.1266 31.9031C27.1266 32.1429 27.1834 32.3794 27.2925 32.593C27.3976 32.787 27.5538 32.9485 27.7441 33.06C27.9427 33.1684 28.1653 33.2253 28.3916 33.2253C28.6178 33.2253 28.8405 33.1684 29.0391 33.06Z" fill="#BF7742"/>
<path d="M34.6079 32.7438C34.6162 32.8932 34.5866 33.0424 34.5218 33.1774C34.4571 33.3123 34.3592 33.4287 34.2374 33.5157C33.9054 33.7175 33.519 33.8112 33.1315 33.7839H31.3271V30.0381H33.064C33.4273 30.0175 33.7885 30.1048 34.1023 30.289C34.2217 30.3639 34.3191 30.4691 34.3849 30.5938C34.4506 30.7185 34.4823 30.8583 34.4767 30.9992C34.4817 31.1824 34.4261 31.3622 34.3184 31.5106C34.2056 31.6605 34.0523 31.7751 33.8765 31.8406C34.0892 31.8725 34.2823 31.9829 34.4176 32.1501C34.553 32.3173 34.6209 32.529 34.6079 32.7438ZM31.9929 31.6418H33.01C33.2166 31.6559 33.4226 31.6068 33.6005 31.5009C33.6647 31.4542 33.7161 31.3921 33.7498 31.3202C33.7836 31.2483 33.7986 31.1691 33.7935 31.0899C33.7935 30.7335 33.5291 30.5547 33.0003 30.5534H31.9833L31.9929 31.6418ZM33.7182 33.1201C33.7877 33.0755 33.844 33.0132 33.8814 32.9396C33.9187 32.866 33.9357 32.7837 33.9305 32.7013C33.9364 32.6192 33.9219 32.5369 33.8882 32.4618C33.8545 32.3867 33.8028 32.3211 33.7375 32.2709C33.5528 32.1626 33.3393 32.1134 33.1258 32.1301H31.9833V33.2494H33.064C33.2866 33.2659 33.5095 33.2212 33.7086 33.1201H33.7182Z" fill="#BF7742"/>
<path d="M39.1795 30.0301V33.7759H38.5291V33.1834C38.38 33.3882 38.1806 33.551 37.9502 33.6562C37.7082 33.7672 37.4444 33.8225 37.1782 33.8183C36.8375 33.8242 36.5011 33.7417 36.2017 33.579C35.9179 33.4215 35.6839 33.1875 35.5263 32.9036C35.3666 32.5949 35.2832 32.2525 35.2832 31.9049C35.2832 31.5574 35.3666 31.2149 35.5263 30.9062C35.6845 30.6238 35.9184 30.3912 36.2017 30.2346C36.501 30.0713 36.8374 29.9881 37.1782 29.9934C37.4339 29.9915 37.687 30.0434 37.9212 30.1459C38.1444 30.246 38.3389 30.4006 38.4867 30.5955V30.0301H39.1795ZM37.8884 33.0561C38.08 32.9462 38.2366 32.7842 38.34 32.589C38.447 32.3748 38.5027 32.1386 38.5027 31.8991C38.5027 31.6596 38.447 31.4234 38.34 31.2092C38.2365 31.015 38.0799 30.8544 37.8884 30.746C37.6912 30.6373 37.4691 30.5814 37.2439 30.5839C37.0179 30.5805 36.795 30.6364 36.5974 30.746C36.4066 30.856 36.2498 31.0162 36.1438 31.2092C36.0348 31.4228 35.9779 31.6593 35.9779 31.8991C35.9779 32.139 36.0348 32.3754 36.1438 32.589C36.2497 32.7831 36.4065 32.9446 36.5974 33.0561C36.7943 33.1679 37.0174 33.2252 37.2439 33.222C37.4695 33.2242 37.6918 33.1669 37.8884 33.0561Z" fill="#BF7742"/>
<path d="M42.9943 33.5715C42.7014 33.4134 42.4577 33.1777 42.2899 32.8902C42.1228 32.5881 42.0352 32.2484 42.0352 31.9031C42.0352 31.5578 42.1228 31.2182 42.2899 30.916C42.4573 30.6292 42.7012 30.3947 42.9943 30.2386C43.3081 30.0712 43.6596 29.9869 44.0152 29.9935C44.3304 29.9882 44.6422 30.0591 44.9242 30.2C45.1854 30.3309 45.4012 30.5374 45.5436 30.7925L45.0284 31.1263C44.92 30.956 44.769 30.817 44.5903 30.723C44.4112 30.6314 44.2125 30.585 44.0113 30.5879C43.7805 30.5845 43.5526 30.6403 43.3494 30.75C43.1557 30.8581 42.9965 31.0186 42.8901 31.2132C42.7809 31.4278 42.7241 31.6652 42.7241 31.906C42.7241 32.1468 42.7809 32.3842 42.8901 32.5988C42.9956 32.794 43.1551 32.9548 43.3494 33.062C43.552 33.1735 43.7802 33.23 44.0113 33.226C44.2124 33.228 44.4109 33.1817 44.5903 33.0909C44.769 32.997 44.92 32.8579 45.0284 32.6876L45.5456 33.0137C45.4023 33.2692 45.1868 33.4766 44.9261 33.6101C44.6447 33.7528 44.3326 33.8244 44.0171 33.8185C43.6606 33.8258 43.3082 33.7408 42.9943 33.5715Z" fill="#BF7742"/>
<path d="M49.1628 30.6227H47.7926V33.7761H47.1133V30.6227H45.7412V30.0303H49.1628V30.6227Z" fill="#BF7742"/>
<path d="M52.8197 30.235C53.1023 30.3918 53.3356 30.6244 53.4932 30.9066C53.6542 31.2148 53.7383 31.5575 53.7383 31.9053C53.7383 32.253 53.6542 32.5957 53.4932 32.904C53.3361 33.1876 53.1028 33.4215 52.8197 33.5794C52.5202 33.7419 52.1839 33.8244 51.8432 33.8187C51.5886 33.8213 51.3364 33.7687 51.1041 33.6643C50.8774 33.562 50.6787 33.4064 50.5251 33.2108V35.1407H49.8535V30.0227H50.5039V30.6152C50.6533 30.4117 50.8527 30.2502 51.0828 30.1462C51.3253 30.0368 51.5888 29.9821 51.8548 29.986C52.1924 29.9854 52.5245 30.0711 52.8197 30.235ZM52.4337 33.0603C52.6245 32.9493 52.7808 32.7876 52.8853 32.5932C52.9944 32.3796 53.0513 32.1432 53.0513 31.9033C53.0513 31.6635 52.9944 31.427 52.8853 31.2134C52.7806 31.0201 52.6243 30.8598 52.4337 30.7502C52.2361 30.6406 52.0132 30.5847 51.7872 30.5881C51.5627 30.5853 51.3414 30.6426 51.1465 30.7541C50.9567 30.8647 50.8006 31.0248 50.6949 31.2173C50.5799 31.4277 50.522 31.6646 50.527 31.9043C50.5232 32.1441 50.5796 32.381 50.6911 32.5932C50.7945 32.7884 50.9511 32.9504 51.1427 33.0603C51.3404 33.1691 51.5625 33.2261 51.7882 33.2261C52.0139 33.2261 52.236 33.1691 52.4337 33.0603Z" fill="#BF7742"/>
<path d="M58.2411 30.0301V33.7759H57.5907V33.1834C57.4415 33.3882 57.2421 33.551 57.0117 33.6562C56.7697 33.7672 56.506 33.8225 56.2398 33.8183C55.8991 33.8242 55.5627 33.7417 55.2633 33.579C54.9795 33.422 54.746 33.1878 54.5898 32.9036C54.4288 32.5953 54.3447 32.2527 54.3447 31.9049C54.3447 31.5571 54.4288 31.2145 54.5898 30.9062C54.7467 30.6235 54.9801 30.3907 55.2633 30.2346C55.5625 30.0713 55.8989 29.9881 56.2398 29.9934C56.4954 29.9915 56.7486 30.0434 56.9828 30.1459C57.206 30.246 57.4004 30.4006 57.5482 30.5955V30.0301H58.2411ZM56.9558 33.0599C57.1474 32.95 57.304 32.7881 57.4074 32.5929C57.5144 32.3787 57.5701 32.1425 57.5701 31.903C57.5701 31.6635 57.5144 31.4273 57.4074 31.2131C57.3039 31.0189 57.1473 30.8582 56.9558 30.7499C56.7585 30.6411 56.5365 30.5853 56.3112 30.5878C56.0852 30.5843 55.8623 30.6402 55.6647 30.7499C55.4741 30.8594 55.3178 31.0198 55.2131 31.2131C55.104 31.4267 55.0471 31.6631 55.0471 31.903C55.0471 32.1428 55.104 32.3793 55.2131 32.5929C55.3176 32.7873 55.4739 32.949 55.6647 33.0599C55.8616 33.1717 56.0848 33.229 56.3112 33.2259C56.5372 33.2269 56.7596 33.1683 56.9558 33.0561V33.0599Z" fill="#BF7742"/>
<path d="M62.3367 30.6227H60.9645V33.7761H60.2852V30.6227H58.9131V30.0303H62.3367V30.6227Z" fill="#BF7742"/>
<path d="M66.2376 32.1299H63.1981C63.2144 32.2846 63.2612 32.4345 63.3357 32.5709C63.4102 32.7074 63.5111 32.8278 63.6324 32.925C63.8949 33.1307 64.2215 33.2373 64.5548 33.2261C64.7574 33.2337 64.9592 33.197 65.1461 33.1187C65.3331 33.0404 65.5008 32.9223 65.6375 32.7726L66.0118 33.2107C65.84 33.4101 65.623 33.5656 65.3788 33.6642C65.073 33.7796 64.7468 33.8312 64.4202 33.8159C64.0937 33.8007 63.7737 33.7188 63.4799 33.5754C63.1822 33.421 62.9355 33.1838 62.7697 32.8922C62.5997 32.5911 62.513 32.25 62.5188 31.9042C62.5138 31.5606 62.5976 31.2216 62.762 30.9199C62.9189 30.6354 63.1513 30.3997 63.4336 30.2387C63.7278 30.0728 64.0608 29.9882 64.3985 29.9936C64.7364 29.9862 65.07 30.071 65.3634 30.2387C65.6422 30.3997 65.8702 30.6357 66.0215 30.9199C66.1824 31.2303 66.2633 31.5759 66.2569 31.9254C66.2542 31.9939 66.2478 32.0622 66.2376 32.1299ZM63.5822 30.864C63.3621 31.0644 63.2245 31.3396 63.1962 31.6359H65.5989C65.5702 31.3397 65.4326 31.0646 65.2129 30.864C64.9844 30.6708 64.6948 30.5648 64.3956 30.5648C64.0964 30.5648 63.8068 30.6708 63.5783 30.864H63.5822Z" fill="#BF7742"/>
<path d="M70.0626 30.6227H67.9938V33.7761H67.3145V30.0303H70.0722L70.0626 30.6227Z" fill="#BF7742"/>
<path d="M70.7661 29.1811C70.7242 29.1411 70.6911 29.0928 70.6689 29.0393C70.6466 28.9858 70.6357 28.9283 70.6368 28.8704C70.6356 28.8119 70.6465 28.7538 70.6687 28.6997C70.691 28.6456 70.7241 28.5966 70.7661 28.5558C70.8094 28.5128 70.861 28.479 70.9177 28.4564C70.9744 28.4339 71.0351 28.423 71.0961 28.4246C71.1562 28.4225 71.2162 28.4323 71.2725 28.4535C71.3288 28.4747 71.3804 28.5069 71.4242 28.5481C71.4664 28.5872 71.4999 28.6347 71.5225 28.6875C71.5451 28.7404 71.5563 28.7975 71.5554 28.8549C71.5566 28.9148 71.5456 28.9742 71.523 29.0296C71.5005 29.085 71.4668 29.1353 71.4242 29.1772C71.3813 29.2203 71.3301 29.2542 71.2737 29.2767C71.2173 29.2993 71.1569 29.3101 71.0961 29.3085C71.0354 29.3103 70.9749 29.3 70.9182 29.2781C70.8616 29.2563 70.8098 29.2233 70.7661 29.1811ZM70.7661 30.0302H71.4454V33.7761H70.7661V30.0302Z" fill="#BF7742"/>
<path d="M75.7626 30.0305V33.7763H75.1547V32.5895H73.9968L73.1766 33.7763H72.4336L73.3445 32.4968C73.0885 32.4292 72.8607 32.2819 72.6941 32.0761C72.5161 31.8139 72.4394 31.4958 72.4785 31.1813C72.5175 30.8667 72.6696 30.577 72.9064 30.3663C73.2617 30.1241 73.6871 30.006 74.1164 30.0305H75.7626ZM73.4043 31.9218C73.6158 32.056 73.8647 32.1189 74.1145 32.1012H75.1547V30.623H74.1434C73.4931 30.623 73.1669 30.8719 73.1669 31.366C73.1582 31.4704 73.1747 31.5754 73.215 31.6721C73.2553 31.7688 73.3182 31.8544 73.3985 31.9218H73.4043Z" fill="#BF7742"/>
<path d="M81.7422 30.6227H79.6638V33.7761H78.9941V30.0303H81.7519L81.7422 30.6227Z" fill="#BF7742"/>
<path d="M82.8732 33.5714C82.5829 33.4125 82.3419 33.1768 82.1766 32.8902C82.0132 32.5868 81.9277 32.2476 81.9277 31.9031C81.9277 31.5585 82.0132 31.2193 82.1766 30.9159C82.3415 30.6299 82.5827 30.3954 82.8732 30.2386C83.1819 30.0721 83.5281 29.9877 83.8787 29.9935C84.2275 29.9874 84.5719 30.0719 84.8784 30.2386C85.1678 30.3956 85.4077 30.6301 85.5712 30.9159C85.7359 31.2189 85.8221 31.5582 85.8221 31.9031C85.8221 32.2479 85.7359 32.5872 85.5712 32.8902C85.4073 33.1766 85.1675 33.4124 84.8784 33.5714C84.5724 33.7396 84.2278 33.8248 83.8787 33.8184C83.5278 33.8245 83.1814 33.7394 82.8732 33.5714ZM84.5252 33.06C84.7154 32.9489 84.871 32.7872 84.9749 32.593C85.0819 32.3787 85.1376 32.1425 85.1376 31.9031C85.1376 31.6636 85.0819 31.4274 84.9749 31.2131C84.871 31.0199 84.7153 30.8595 84.5252 30.75C84.326 30.6435 84.1036 30.5879 83.8777 30.5879C83.6519 30.5879 83.4295 30.6435 83.2303 30.75C83.0397 30.8595 82.8833 31.0198 82.7787 31.2131C82.6696 31.4267 82.6127 31.6632 82.6127 31.9031C82.6127 32.1429 82.6696 32.3794 82.7787 32.593C82.8864 32.7872 83.0461 32.9476 83.2399 33.0561C83.4385 33.1646 83.6611 33.2214 83.8874 33.2214C84.1136 33.2214 84.3363 33.1646 84.5348 33.0561L84.5252 33.06Z" fill="#BF7742"/>
<path d="M90.5874 33.1836V34.6465H89.9525V33.7761H86.8204V34.6465H86.1758V33.1836H86.3688C86.6081 33.1682 86.774 32.9907 86.8628 32.6742C86.9731 32.2218 87.0377 31.7596 87.0558 31.2943L87.1118 30.0303H90.0181V33.1836H90.5874ZM87.5576 32.514C87.5272 32.7663 87.4146 33.0016 87.2372 33.1836H89.3369V30.6227H87.71L87.6753 31.3445C87.6645 31.7367 87.6252 32.1275 87.5576 32.514Z" fill="#BF7742"/>
<path d="M91.4828 29.1811C91.4407 29.1411 91.4073 29.0929 91.3847 29.0395C91.3621 28.986 91.3509 28.9284 91.3516 28.8704C91.3508 28.8118 91.362 28.7536 91.3846 28.6995C91.4072 28.6454 91.4406 28.5965 91.4828 28.5558C91.5257 28.5127 91.5769 28.4789 91.6333 28.4563C91.6897 28.4337 91.7502 28.4229 91.8109 28.4246C91.9329 28.4205 92.0516 28.4649 92.1409 28.5481C92.1829 28.5872 92.2161 28.6348 92.2384 28.6877C92.2606 28.7406 92.2715 28.7976 92.2702 28.8549C92.2718 28.9146 92.2611 28.974 92.2389 29.0294C92.2166 29.0849 92.1833 29.1352 92.1409 29.1772C92.0516 29.2605 91.934 29.3068 91.8119 29.3068C91.6897 29.3068 91.5721 29.2605 91.4828 29.1772V29.1811ZM91.4713 30.0302H92.1506V33.776H91.4713V30.0302Z" fill="#BF7742"/>
<path d="M96.7495 32.7438C96.7578 32.8932 96.7282 33.0424 96.6635 33.1774C96.5987 33.3123 96.5008 33.4287 96.3789 33.5157C96.0462 33.7171 95.6593 33.8108 95.2712 33.784H93.4688V30.0381H95.2056C95.5695 30.0175 95.9313 30.1048 96.2458 30.289C96.3649 30.3642 96.4622 30.4694 96.5279 30.5941C96.5936 30.7187 96.6254 30.8584 96.6202 30.9992C96.6252 31.1824 96.5696 31.3622 96.4619 31.5106C96.3488 31.6602 96.1955 31.7746 96.02 31.8406C96.2322 31.8734 96.4245 31.9841 96.5594 32.1511C96.6943 32.3181 96.7621 32.5294 96.7495 32.7438ZM94.1326 31.6418H95.1516C95.3581 31.6555 95.564 31.6064 95.7421 31.5009C95.8062 31.4541 95.8575 31.3919 95.8912 31.3201C95.9249 31.2483 95.94 31.1691 95.9351 31.0899C95.9351 30.7335 95.6714 30.5547 95.1439 30.5534H94.1249L94.1326 31.6418ZM95.8579 33.1201C95.9277 33.0758 95.9842 33.0136 96.0216 32.9399C96.059 32.8662 96.0757 32.7837 96.0702 32.7013C96.0764 32.6192 96.0621 32.5368 96.0284 32.4616C95.9947 32.3865 95.9427 32.3209 95.8772 32.271C95.6932 32.1626 95.4803 32.1134 95.2674 32.1301H94.1345V33.2494H95.2249C95.445 33.2652 95.6652 33.2204 95.8618 33.1201H95.8579Z" fill="#BF7742"/>
<path d="M101.031 30.0303V33.7761H100.352V30.6227H98.7382L98.6957 31.4584C98.6813 31.8817 98.6368 32.3035 98.5625 32.7205C98.5151 33.0109 98.4037 33.2871 98.2364 33.5291C98.1648 33.6279 98.0699 33.7074 97.9602 33.7606C97.8504 33.8138 97.7291 33.839 97.6073 33.834C97.4661 33.8311 97.326 33.8097 97.1904 33.7703L97.2329 33.1914C97.2886 33.2045 97.3455 33.2116 97.4027 33.2126C97.4896 33.2158 97.5756 33.1943 97.6508 33.1506C97.726 33.1069 97.7871 33.0427 97.8273 32.9656C97.9287 32.787 97.9942 32.5903 98.0202 32.3866C98.0492 32.1589 98.0743 31.8366 98.0974 31.4217L98.1611 30.0361L101.031 30.0303Z" fill="#BF7742"/>
<path d="M102.356 29.1811C102.314 29.1411 102.281 29.0928 102.259 29.0393C102.236 28.9858 102.226 28.9283 102.227 28.8704C102.225 28.8119 102.236 28.7538 102.259 28.6997C102.281 28.6456 102.314 28.5966 102.356 28.5558C102.399 28.5128 102.451 28.479 102.508 28.4564C102.564 28.4339 102.625 28.423 102.686 28.4246C102.746 28.4225 102.806 28.4323 102.862 28.4535C102.919 28.4747 102.97 28.5069 103.014 28.5481C103.056 28.5872 103.09 28.6347 103.112 28.6875C103.135 28.7404 103.146 28.7975 103.145 28.8549C103.146 28.9148 103.135 28.9742 103.113 29.0296C103.09 29.085 103.057 29.1353 103.014 29.1772C102.971 29.2203 102.92 29.2542 102.864 29.2767C102.807 29.2993 102.747 29.3101 102.686 29.3085C102.625 29.3103 102.565 29.3 102.508 29.2781C102.451 29.2563 102.4 29.2233 102.356 29.1811ZM102.356 30.0302H103.035V33.7761H102.346L102.356 30.0302Z" fill="#BF7742"/>
<path d="M14.2423 1.21387H8.06676L0 23.521H5.62937L6.95709 19.5764H15.3288L16.6604 23.521H22.3495L14.2423 1.21387ZM8.36203 15.4137L11.1468 7.16359L13.9258 15.4137H8.36203Z" fill="#BF7742"/>
<path d="M41.6062 9.08965C41.1014 8.01618 40.2972 7.11146 39.2904 6.48436C38.226 5.85094 37.0046 5.53055 35.7664 5.55996C34.9527 5.55728 34.1474 5.7249 33.4024 6.05207C32.6584 6.37558 31.9881 6.84701 31.432 7.4377C30.8632 8.03982 30.4435 8.76688 30.2066 9.56053V5.78382H24.8242V23.521H30.1969V14.2694C30.1854 13.529 30.3253 12.7942 30.608 12.1099C30.86 11.5056 31.2741 10.9827 31.8045 10.5988C32.3479 10.2195 32.9985 10.0241 33.661 10.0411C34.6992 10.0411 35.5252 10.3884 36.1389 11.0755C36.7526 11.7625 37.0633 12.7236 37.0633 13.9529V23.521H42.4321V13.1269C42.4321 11.5598 42.1568 10.2141 41.6062 9.08965Z" fill="#BF7742"/>
<path d="M81.8453 9.78846C81.0641 8.45666 79.9229 7.37234 78.553 6.66018C77.0935 5.93656 75.4866 5.56006 73.8577 5.56006C72.2287 5.56006 70.6218 5.93656 69.1624 6.66018C67.7852 7.36789 66.638 8.45292 65.8546 9.78846C65.0518 11.1458 64.6497 12.7662 64.6484 14.6497C64.6472 16.5333 65.0447 18.1415 65.8411 19.4744C66.6091 20.812 67.7371 21.9072 69.0967 22.6355C70.5232 23.3879 72.1158 23.7701 73.7284 23.747C75.38 23.7724 77.0125 23.3907 78.4816 22.6355C79.8653 21.9168 81.021 20.826 81.8183 19.4859C82.6327 18.135 83.0399 16.5268 83.0399 14.6613C83.0399 12.7958 82.6417 11.1715 81.8453 9.78846ZM77.0419 17.1219C76.7278 17.7432 76.2361 18.2571 75.6293 18.5982C75.0603 18.9123 74.4207 19.0763 73.7708 19.0749C73.1303 19.0794 72.4999 18.915 71.9432 18.5982C71.3578 18.254 70.8917 17.7388 70.6078 17.1219C70.2567 16.3382 70.0884 15.4849 70.1157 14.6266C70.1157 13.6282 70.2907 12.8074 70.6406 12.1641C70.9484 11.5605 71.4226 11.0576 72.0069 10.7148C72.4297 10.4672 72.8985 10.308 73.3846 10.247C73.8708 10.186 74.3643 10.2245 74.8351 10.36C75.306 10.4956 75.7444 10.7254 76.1237 11.0355C76.5031 11.3456 76.8155 11.7296 77.0419 12.1641C77.4047 12.8074 77.5855 13.6282 77.5842 14.6266C77.6136 15.4886 77.4272 16.3444 77.0419 17.1161V17.1219Z" fill="#BF7742"/>
<path d="M102.732 9.08967C102.226 8.01688 101.422 7.11241 100.416 6.48438C99.3506 5.85075 98.1279 5.53037 96.8885 5.55999C96.0735 5.55767 95.2671 5.72527 94.5205 6.0521C93.7773 6.37677 93.1071 6.84805 92.5502 7.43773C91.9841 8.04183 91.5648 8.76822 91.3247 9.56056V5.78385H85.9424V23.5211H91.3112V14.2694C91.3009 13.5288 91.4421 12.7939 91.7261 12.1099C91.9781 11.5067 92.3906 10.984 92.9188 10.5988C93.464 10.2201 94.1155 10.0248 94.7792 10.0411C95.8174 10.0411 96.6434 10.3885 97.2571 11.0755C97.8708 11.7625 98.1776 12.7236 98.1776 13.9529V23.5211H103.55V13.1269C103.55 11.5599 103.278 10.2141 102.732 9.08967Z" fill="#BF7742"/>
<path d="M119.634 5.78392V9.72467C119.251 8.50252 118.495 7.43087 117.472 6.66007C116.448 5.91789 115.209 5.53154 113.945 5.56007C112.378 5.56007 111.021 5.9634 109.875 6.77007C108.709 7.60329 107.792 8.7372 107.221 10.0508C106.603 11.5118 106.285 13.0818 106.285 14.668C106.285 16.2541 106.603 17.8242 107.221 19.2851C107.797 20.5862 108.713 21.7081 109.873 22.5331C111.018 23.3372 112.374 23.7399 113.943 23.7411C115.219 23.7778 116.471 23.3883 117.501 22.6342C118.532 21.88 119.281 20.8042 119.632 19.5765V20.7865C119.632 21.653 119.867 22.3304 120.344 22.8013C120.821 23.2722 121.471 23.5211 122.303 23.5211H125.005V5.78392H119.634ZM119.09 17.0176C118.841 17.4715 118.503 17.8712 118.098 18.1931C117.692 18.515 117.227 18.7527 116.728 18.8922C116.229 19.0317 115.708 19.0702 115.194 19.0054C114.68 18.9407 114.185 18.774 113.736 18.5151C113.127 18.161 112.631 17.6418 112.304 17.0176C111.937 16.2837 111.758 15.4699 111.783 14.6496C111.764 13.8305 111.943 13.0188 112.304 12.2836C112.624 11.6473 113.122 11.1172 113.736 10.7571C114.184 10.4909 114.682 10.319 115.199 10.2519C115.716 10.1847 116.241 10.2238 116.742 10.3667C117.243 10.5097 117.71 10.7534 118.113 11.083C118.517 11.4126 118.849 11.8212 119.09 12.2836C119.466 13.0143 119.653 13.8278 119.634 14.6496C119.66 15.4727 119.472 16.2884 119.09 17.0176Z" fill="#BF7742"/>
<path d="M66.4852 4.77637L66.1784 5.11409C65.5832 5.76149 64.8604 6.27861 64.0556 6.63288C63.1436 7.05161 62.1527 7.27071 61.1492 7.27551H55.1416C55.1995 7.03814 55.2477 6.8027 55.2883 6.55954C55.3936 5.97031 55.4581 5.3745 55.4813 4.77637H66.4852Z" fill="#BF7742"/>
<path d="M64.1345 7.84863L63.8489 8.19022C63.4306 8.69031 62.9316 9.1169 62.3725 9.45233C61.4108 10.0446 60.3061 10.3641 59.1767 10.3767H53.9912C54.4166 9.57277 54.7537 8.72514 54.9967 7.84863H64.1345Z" fill="#BF7742"/>
<path d="M63.8858 23.521H58.131C57.9546 22.6427 57.6448 21.7967 57.2124 21.0122C56.8051 20.2722 56.2965 19.5928 55.7013 18.9935C55.1375 18.4217 54.486 17.9436 53.7715 17.577C53.095 17.2248 52.3645 16.988 51.61 16.8765V23.5229H46.2412V0H51.61V13.3719C52.4273 12.676 53.1232 11.8491 53.6692 10.9249H61.8305L61.5526 11.2703C60.7197 12.3065 59.5654 13.0358 58.2719 13.3429C57.8869 13.435 57.4924 13.4816 57.0966 13.4819H51.9188C52.5209 13.5379 54.3813 13.7173 55.6396 14.1072C57.1969 14.6167 57.7508 15.0605 58.5768 15.6337C59.4807 16.2998 60.309 17.0627 61.047 17.909C61.7561 18.705 62.3647 19.5852 62.8591 20.5297C63.3481 21.4702 63.6941 22.4784 63.8858 23.521Z" fill="#BF7742"/>
</svg>
