<svg width="75" height="46" viewBox="0 0 75 46" fill="none" xmlns="http://www.w3.org/2000/svg">
<g clip-path="url(#clip0_30_5140)">
<path d="M28.8501 0H16.3656L1.52588e-05 45.9977H11.4041L13.8217 38.6933H31.3319L33.7518 45.9887H45.2799L42.0718 37.0018V36.986C46.4604 35.3211 50.3446 32.5172 53.3387 28.8528L54.5696 27.3189H38.5981L37.7258 24.8683L42.6474 24.8075C47.6001 24.8075 52.6545 23.3029 56.985 20.6902C59.4838 19.2013 61.7272 17.3077 63.6269 15.0841L64.9088 13.5615H33.692L32.8197 11.1222H51.0384C55.5357 11.1014 59.9796 10.1287 64.0874 8.26616C67.767 6.62193 71.0769 4.31777 73.6296 1.50907L74.9978 0.00674994H28.8501V0ZM27.5527 27.3189H17.5899L22.5691 12.2776L25.9764 22.5754L26.7823 24.9945L27.5527 27.3189Z" fill="#BF7742"/>
</g>
<defs>
<clipPath id="clip0_30_5140">
<rect width="75" height="46" fill="white"/>
</clipPath>
</defs>
</svg>
