<svg width="36" height="28" viewBox="0 0 36 28" fill="none" xmlns="http://www.w3.org/2000/svg">
<path d="M9.40512 19.3725C9.40512 19.3725 8.21442 19.3725 7.97628 19.3725C7.73814 19.3725 7.5 18.8995 7.5 18.8995V11.3315L8.45256 10.3855H19.8833C22.3013 7.89182 26.0749 4 26.0749 4V5.65551C26.0749 5.65551 28.9326 8.49351 28.9326 8.96652C28.9326 9.43952 29.1708 10.3855 28.9326 10.3855C28.6945 10.3855 27.5038 10.3855 27.5038 10.3855C27.5038 10.3855 27.2628 10.0293 27.0275 9.91252C26.6948 9.7473 26.4077 9.7473 26.0749 9.91252C25.8397 10.0293 25.5987 10.149 25.5987 10.3855C25.5987 10.622 25.4173 11.8553 25.1224 12.7505C24.9021 13.419 24.7521 13.7912 24.408 14.406C23.8928 15.3265 22.741 16.5345 22.741 16.5345C22.741 16.5345 22.7672 17.9763 22.741 18.8995C22.683 20.939 22.5028 24.1026 22.5028 24.1026M9.40512 19.3725C9.40512 19.3725 9.8814 20.7916 9.8814 21.2646C9.8814 21.7376 9.8814 24.1026 9.8814 24.1026H11.3102C11.3102 24.1026 11.3102 19.609 11.3102 19.3725C11.3102 19.136 14.4061 16.0615 14.4061 16.0615C14.4061 16.0615 15.0043 15.9489 15.3586 16.0615C15.678 16.163 15.5968 16.298 16.073 16.5345C16.5493 16.771 20.8359 16.5345 20.8359 16.5345C20.8359 16.5345 20.8359 22.6836 20.8359 23.1566C20.8359 23.6296 21.3121 24.1026 21.3121 24.1026H22.5028M9.40512 19.3725L9.8814 18.4265V17.0075M22.9791 24.1026H22.5028M9.40512 11.8045V14.6425L9.8814 15.352V17.0075M9.8814 17.0075H10.3577" stroke="#BF7742" stroke-width="0.717949"/>
</svg>
