<svg width="36" height="21" viewBox="0 0 36 21" fill="none" xmlns="http://www.w3.org/2000/svg">
<path d="M30.8384 3.36686C30.8384 3.36686 29.0596 4.39278 28.7088 5.53649C28.5846 5.9413 28.5972 6.49829 28.6336 6.91716M30.8384 3.36686C30.8384 3.36686 29.6508 3.55786 28.9025 3.95858C28.3799 4.23851 27.3537 4.74753 27.3537 4.74753C27.3537 4.74753 26.9551 5.22934 26.3857 5.14201C26.0514 5.09073 25.8047 5.14201 25.4176 4.94477C25.0305 4.74753 22.4763 4.18547 20.5776 3.76134C17.7966 3.14014 16.252 2.61626 13.4144 2.38067C11.2291 2.19923 8.76815 2.18343 7.80002 2.38067C6.83188 2.57791 5.92128 3.12592 5.28322 4.15582C5.06158 4.51357 4.96205 4.73665 4.84322 5.14201M30.8384 3.36686C30.8384 3.36686 30.9895 4.23079 30.8384 4.74753C30.6828 5.27987 30.44 5.52879 30.064 5.93097C29.5988 6.42853 28.6336 6.91716 28.6336 6.91716M18.2544 12.0454L18.6416 14.6095V15.0039M18.6416 15.0039C18.6416 15.0039 18.6416 16.8806 18.6416 17.1736C18.6416 17.4665 19.416 18.9487 19.416 18.9487H20.5776C20.5776 18.9487 20.3913 17.7228 20.5776 16.9763C20.7326 16.3554 21.2573 15.6169 21.5456 15.2444M18.6416 15.0039C18.6416 15.0039 16.2525 15.3055 14.7696 15.0039C13.7021 14.7869 13.1449 14.4484 12.1569 14.0561M10.1232 13.2288C10.8744 13.549 11.2985 13.7218 12.0592 14.0178C12.0923 14.0306 12.1248 14.0434 12.1569 14.0561M10.1232 13.2288C10.4256 12.4585 10.8976 11.2564 10.8976 11.2564V8.29783M10.1232 13.2288C9.73439 13.691 9.51639 13.9501 9.12756 14.4122M4.31522 1L4.50882 1.78895C4.50882 1.78895 4.9485 2.13472 5.28322 2.18343C5.75658 2.25233 6.4729 2.27527 6.44482 1.78895C6.42262 1.40449 6.044 1.25614 5.67042 1.19724C5.36235 1.14867 5.18004 1.26358 4.89602 1.39448C4.55159 1.55322 4.3149 1.65521 4.12162 1.98619C3.80996 2.51989 4.1798 2.95861 4.31522 3.5641C4.45719 4.19887 4.57504 4.55108 4.84322 5.14201M4.84322 5.14201C4.55409 5.55548 4.43087 5.83164 4.31522 6.32544C4.17484 6.92483 4.28424 7.28795 4.31522 7.90335C4.36998 8.99124 4.51716 9.59185 4.70242 10.6647C4.83601 11.4383 4.7872 11.4047 5.08962 12.6371C5.39204 13.8695 5.86402 15.5957 5.86402 15.7929C5.86402 15.7929 5.86402 17.1736 5.86402 17.568C5.86402 17.9625 6.63842 18.9487 6.63842 18.9487H7.80002C7.80002 18.9487 7.60655 16.3846 7.80002 15.9901C7.99348 15.5957 8.7745 14.6673 9.12756 14.4122M12.1569 14.0561C12.1569 14.0561 12.2111 15.1579 12.1569 15.3984C12.1027 15.639 11.672 16.1874 11.672 16.1874V18.9487H12.1569H10.8976L10.1232 17.7653C10.1232 17.7653 9.81086 16.9402 9.73601 16.3846C9.66405 15.8504 9.85064 15.2444 9.73601 15.0039C9.62139 14.7635 9.36517 14.6433 9.12756 14.4122M24.4496 15.0039H24.8368C24.8368 15.0039 26.6283 14.8816 27.7408 14.6095C28.6707 14.382 29.2109 14.2607 30.064 13.8205C30.8873 13.3957 32 12.4398 32 12.4398V9.87574V10.4675C32 10.4675 31.6128 10.6647 30.8384 10.2702C30.064 9.87574 28.7088 7.50888 28.7088 7.50888C28.7088 7.50888 28.6633 7.25902 28.6336 6.91716M24.4496 15.0039H21.7392C21.7392 15.0039 21.6615 15.0946 21.5456 15.2444M24.4496 15.0039V18.9487H23.288C23.288 18.9487 22.3201 16.3846 21.9328 15.7929C21.5455 15.2012 21.5456 15.2444 21.5456 15.2444" stroke="#BF7742" stroke-width="0.717949"/>
</svg>
