<svg width="36" height="28" viewBox="0 0 36 28" fill="none" xmlns="http://www.w3.org/2000/svg">
<path d="M26.9744 5.79487L25.7179 4H29.4872L27.6923 5.07692L31.4615 9.92308L30.5641 11.1795H28.5897L26.9744 10.8205L26.2564 10.4615L22.3077 16.5641M26.9744 5.79487L25.5385 5.07692H23.3846L24.1026 5.79487L25.1795 6.33333M26.9744 5.79487L25.1795 6.33333M4 13.8718V7.58974L4.71795 6.87179H5.4359M25.1795 6.33333L23.3846 6.87179H15.1282M22.3077 16.5641H20.1538V17.8205M22.3077 16.5641L23.5641 22.6667H22.3077L20.1538 17.8205M12.9744 16.5641H18.359C18.359 16.5641 18.5385 18 18.5385 18.359C18.5385 18.7179 18.7179 22.6667 18.7179 22.6667H20.1538V17.8205M12.9744 16.5641L8.84615 15.3077L6.87179 17.4615L6.8 18.5385M12.9744 16.5641C12.9744 16.5641 12.0769 18.5385 11.7179 18.5385C11.359 18.5385 11.5385 18.5385 11.5385 18.5385M6.69231 20.1538L6.51282 22.6667H5.4359V20.5128L5.07692 20.1538V15.1282L5.4359 14.7692V6.87179M6.69231 20.1538L7.94872 22.6667H9.02564V20.1538L8.66667 18.5385H6.8M6.69231 20.1538L6.8 18.5385M5.4359 6.87179H9.74359M6.8 18.5385H10.2821M11.5385 18.5385V19.7949M11.5385 18.5385H10.2821M10.2821 19.7949V18.5385M13.8718 10.8205L13.6923 11.1795C13.6923 11.1795 12.3302 11.4636 11.5385 11.1795C10.6508 10.861 10.1349 10.4221 9.74359 9.5641C9.33642 8.67124 9.74359 7.05128 9.74359 7.05128V6.87179M9.74359 6.87179H15.1282M15.1282 9.92308H15.4872C15.4872 9.92308 15.7535 9.39156 15.8462 9.02564C16.0182 8.34614 16.0256 7.41026 15.8462 7.23077C15.6667 7.05128 15.6274 7.12138 15.4872 7.05128C15.347 6.98119 15.1282 6.87179 15.1282 6.87179M19.7949 10.8205C19.7949 10.8205 19.5129 10.5228 19.4359 10.2821C19.3504 10.015 19.3431 9.82867 19.4359 9.5641C19.5845 9.14059 19.9122 9.00131 20.3333 8.84615C20.7937 8.67653 21.1451 8.63866 21.5897 8.84615C21.9491 9.01383 22.14 9.20479 22.3077 9.5641C22.5152 10.0087 22.5044 10.371 22.3077 10.8205C22.0883 11.3221 21.2308 11.7179 21.2308 11.7179M18.7179 12.6154C18.7179 13.0119 18.3941 13.2895 18 13.3333C17.5539 13.3829 17.1026 13.0642 17.1026 12.6154C17.1026 12.1666 17.5539 11.8479 18 11.8974C18.3941 11.9412 18.7179 12.2189 18.7179 12.6154Z" stroke="#BF7742" stroke-width="0.717949"/>
</svg>
