<svg width="166" height="52" viewBox="0 0 166 52" fill="none" xmlns="http://www.w3.org/2000/svg">
<rect width="166" height="52" fill="#F0ECE5"/>
<path d="M22.1946 5.41992H14.4138L4.25 33.5259H11.3428L13.0156 28.5559H23.5636L25.2414 33.5259H32.4095L22.1946 5.41992ZM14.7858 23.3111L18.2945 12.9163L21.7959 23.3111H14.7858Z" fill="#27120C"/>
<path d="M56.6719 15.3431C56.0359 13.9906 55.0227 12.8507 53.7541 12.0606C52.4131 11.2625 50.8742 10.8588 49.3141 10.8959C48.2888 10.8925 47.2742 11.1037 46.3355 11.5159C45.3981 11.9235 44.5535 12.5175 43.8529 13.2618C43.1363 14.0204 42.6074 14.9365 42.3089 15.9364V11.1779H35.5273V33.5261H42.2967V21.8694C42.2822 20.9366 42.4584 20.0107 42.8146 19.1485C43.1322 18.3871 43.6539 17.7283 44.3222 17.2446C45.0069 16.7668 45.8266 16.5205 46.6613 16.5419C47.9695 16.5419 49.0101 16.9796 49.7834 17.8452C50.5566 18.7108 50.9481 19.9217 50.9481 21.4706V33.5261H57.7126V20.4299C57.7126 18.4555 57.3657 16.7599 56.6719 15.3431Z" fill="#27120C"/>
<path d="M107.371 16.2231C106.387 14.5451 104.949 13.1789 103.223 12.2816C101.384 11.3699 99.3598 10.8955 97.3073 10.8955C95.2549 10.8955 93.2303 11.3699 91.3914 12.2816C89.6563 13.1733 88.2108 14.5404 87.2238 16.2231C86.2123 17.9333 85.7057 19.975 85.7041 22.3481C85.7025 24.7213 86.2034 26.7476 87.2068 28.4269C88.1744 30.1123 89.5956 31.4922 91.3088 32.4098C93.106 33.3578 95.1126 33.8394 97.1444 33.8103C99.2254 33.8423 101.282 33.3613 103.133 32.4098C104.877 31.5043 106.333 30.1299 107.337 28.4415C108.363 26.7395 108.877 24.7132 108.877 22.3627C108.877 20.0122 108.375 17.9657 107.371 16.2231ZM101.319 25.4629C100.924 26.2457 100.304 26.8932 99.5395 27.323C98.8226 27.7187 98.0168 27.9254 97.1979 27.9236C96.3909 27.9293 95.5967 27.7221 94.8952 27.323C94.1576 26.8894 93.5704 26.2402 93.2127 25.4629C92.7702 24.4755 92.5582 23.4004 92.5926 22.319C92.5926 21.061 92.8131 20.0268 93.254 19.2163C93.6418 18.4559 94.2392 17.8222 94.9755 17.3902C95.5082 17.0782 96.0988 16.8777 96.7113 16.8009C97.3239 16.7241 97.9456 16.7725 98.5389 16.9433C99.1322 17.114 99.6845 17.4036 100.163 17.7943C100.64 18.1851 101.034 18.6689 101.319 19.2163C101.776 20.0268 102.004 21.061 102.003 22.319C102.04 23.4051 101.805 24.4833 101.319 25.4556V25.4629Z" fill="#27120C"/>
<path d="M133.687 15.3432C133.05 13.9915 132.037 12.8519 130.77 12.0606C129.427 11.2623 127.886 10.8586 126.325 10.8959C125.298 10.893 124.282 11.1042 123.341 11.516C122.405 11.925 121.56 12.5188 120.859 13.2618C120.145 14.0229 119.617 14.9382 119.315 15.9365V11.178H112.533V33.5261H119.298V21.8694C119.285 20.9363 119.463 20.0104 119.82 19.1485C120.138 18.3885 120.658 17.73 121.323 17.2446C122.01 16.7675 122.831 16.5214 123.667 16.5419C124.975 16.5419 126.016 16.9796 126.789 17.8452C127.562 18.7108 127.949 19.9217 127.949 21.4706V33.5261H134.718V20.4299C134.718 18.4555 134.375 16.7599 133.687 15.3432Z" fill="#27120C"/>
<path d="M154.983 11.1775V16.1426C154.5 14.6028 153.548 13.2525 152.26 12.2814C150.969 11.3463 149.408 10.8595 147.815 10.8954C145.84 10.8954 144.131 11.4036 142.687 12.42C141.219 13.4698 140.063 14.8985 139.343 16.5536C138.565 18.3943 138.164 20.3725 138.164 22.371C138.164 24.3695 138.565 26.3477 139.343 28.1884C140.069 29.8277 141.223 31.2412 142.684 32.2807C144.127 33.2938 145.836 33.8012 147.812 33.8028C149.42 33.849 150.998 33.3583 152.296 32.4081C153.594 31.4579 154.538 30.1024 154.98 28.5556V30.0801C154.98 31.1719 155.277 32.0253 155.878 32.6186C156.478 33.2119 157.298 33.5256 158.346 33.5256H161.75V11.1775H154.983ZM154.297 25.3314C153.983 25.9034 153.559 26.4069 153.048 26.8125C152.537 27.2181 151.95 27.5176 151.321 27.6933C150.693 27.8691 150.036 27.9176 149.389 27.836C148.742 27.7544 148.117 27.5444 147.552 27.2182C146.785 26.7721 146.159 26.1179 145.748 25.3314C145.285 24.4067 145.059 23.3814 145.091 22.3479C145.067 21.3158 145.292 20.2931 145.748 19.3668C146.151 18.5651 146.778 17.8971 147.552 17.4435C148.117 17.1081 148.744 16.8915 149.395 16.8069C150.046 16.7223 150.708 16.7716 151.339 16.9516C151.971 17.1317 152.559 17.4388 153.067 17.8541C153.576 18.2694 153.994 18.7841 154.297 19.3668C154.772 20.2874 155.008 21.3125 154.983 22.3479C155.015 23.3849 154.779 24.4126 154.297 25.3314Z" fill="#27120C"/>
<path d="M88.0191 9.9082L87.6324 10.3337C86.8826 11.1494 85.9719 11.801 84.9578 12.2473C83.8087 12.7749 82.5603 13.051 81.2959 13.057H73.7266C73.7995 12.7579 73.8603 12.4613 73.9114 12.1549C74.0441 11.4125 74.1254 10.6618 74.1545 9.9082H88.0191Z" fill="#27120C"/>
<path d="M85.0574 13.7793L84.6976 14.2097C84.1706 14.8398 83.5418 15.3773 82.8375 15.7999C81.6257 16.5461 80.2339 16.9487 78.8109 16.9646H72.2773C72.8133 15.9516 73.2381 14.8837 73.5442 13.7793H85.0574Z" fill="#27120C"/>
<path d="M84.7431 33.526H77.4923C77.27 32.4195 76.8797 31.3535 76.3349 30.3651C75.8218 29.4328 75.181 28.5767 74.4311 27.8217C73.7206 27.1012 72.8998 26.4987 71.9995 26.0369C71.1472 25.5931 70.2268 25.2948 69.2762 25.1543V33.5285H62.5117V3.89062H69.2762V20.7386C70.306 19.8619 71.1828 18.8199 71.8707 17.6555H82.1536L81.8034 18.0907C80.754 19.3963 79.2996 20.3152 77.6698 20.7022C77.1848 20.8182 76.6878 20.8769 76.189 20.8772H69.6652C70.4239 20.9478 72.7679 21.1739 74.3532 21.6651C76.3155 22.307 77.0133 22.8662 78.054 23.5884C79.1929 24.4276 80.2365 25.389 81.1664 26.4552C82.0598 27.4582 82.8266 28.5672 83.4496 29.7572C84.0656 30.9422 84.5016 32.2125 84.7431 33.526Z" fill="#27120C"/>
<path d="M31.8672 41.6709H32.7133V43.6745H35.4123V41.6709H36.2682V46.3905H35.4123V44.4137H32.7133V46.3905H31.8574L31.8672 41.6709Z" fill="#27120C"/>
<path d="M38.6896 46.1325C38.324 45.9328 38.021 45.6357 37.8142 45.2741C37.6067 44.8924 37.498 44.4649 37.498 44.0304C37.498 43.5959 37.6067 43.1684 37.8142 42.7867C38.0205 42.4259 38.3238 42.1303 38.6896 41.9332C39.0785 41.7235 39.5147 41.6172 39.9564 41.6244C40.3959 41.6168 40.8298 41.7232 41.2159 41.9332C41.5806 42.1311 41.8828 42.4266 42.0889 42.7867C42.2963 43.1684 42.4051 43.5959 42.4051 44.0304C42.4051 44.4649 42.2963 44.8924 42.0889 45.2741C41.8823 45.6351 41.5803 45.9321 41.2159 46.1325C40.8305 46.3444 40.3962 46.4517 39.9564 46.4437C39.5143 46.4514 39.0778 46.3442 38.6896 46.1325ZM40.771 45.4881C41.0106 45.3481 41.2067 45.1444 41.3375 44.8997C41.4723 44.6297 41.5425 44.3321 41.5425 44.0304C41.5425 43.7287 41.4723 43.4311 41.3375 43.1611C41.2066 42.9177 41.0104 42.7156 40.771 42.5776C40.52 42.4435 40.2398 42.3733 39.9552 42.3733C39.6706 42.3733 39.3904 42.4435 39.1394 42.5776C38.8999 42.7163 38.703 42.9181 38.5704 43.1611C38.433 43.4303 38.3613 43.7282 38.3613 44.0304C38.3613 44.3326 38.433 44.6305 38.5704 44.8997C38.7028 45.1441 38.8996 45.3476 39.1394 45.4881C39.3896 45.6247 39.6701 45.6963 39.9552 45.6963C40.2403 45.6963 40.5208 45.6247 40.771 45.4881Z" fill="#27120C"/>
<path d="M47.7889 45.0895C47.7994 45.2778 47.7621 45.4658 47.6805 45.6358C47.5988 45.8059 47.4755 45.9525 47.322 46.0621C46.9038 46.3163 46.417 46.4344 45.9287 46.4001H43.6553V41.6805H45.8436C46.3013 41.6546 46.7565 41.7645 47.1518 41.9966C47.3022 42.091 47.4251 42.2235 47.5079 42.3806C47.5907 42.5377 47.6306 42.7139 47.6235 42.8914C47.6299 43.1223 47.5598 43.3488 47.4241 43.5357C47.282 43.7247 47.0888 43.869 46.8673 43.9515C47.1353 43.9917 47.3786 44.1309 47.5492 44.3415C47.7197 44.5521 47.8052 44.819 47.7889 45.0895ZM44.4942 43.7011H45.7756C46.0358 43.7189 46.2954 43.657 46.5196 43.5236C46.6005 43.4648 46.6652 43.3864 46.7077 43.2959C46.7503 43.2053 46.7692 43.1055 46.7628 43.0057C46.7628 42.5566 46.4296 42.3313 45.7634 42.3297H44.482L44.4942 43.7011ZM46.6679 45.5636C46.7555 45.5075 46.8265 45.429 46.8735 45.3362C46.9205 45.2434 46.9419 45.1398 46.9354 45.036C46.9428 44.9325 46.9245 44.8289 46.8821 44.7343C46.8397 44.6396 46.7744 44.557 46.6922 44.4938C46.4595 44.3572 46.1905 44.2953 45.9215 44.3163H44.482V45.7265H45.8436C46.1241 45.7473 46.405 45.691 46.6558 45.5636H46.6679Z" fill="#27120C"/>
<path d="M53.5488 41.6705V46.3901H52.7294V45.6436C52.5414 45.9016 52.2902 46.1067 51.9999 46.2393C51.695 46.3791 51.3627 46.4489 51.0273 46.4436C50.5981 46.4509 50.1742 46.3471 49.797 46.1421C49.4393 45.9435 49.1445 45.6487 48.9459 45.2911C48.7447 44.9022 48.6396 44.4706 48.6396 44.0327C48.6396 43.5948 48.7447 43.1633 48.9459 42.7744C49.1452 42.4186 49.44 42.1255 49.797 41.9283C50.174 41.7224 50.5978 41.6177 51.0273 41.6243C51.3494 41.6219 51.6684 41.6873 51.9634 41.8164C52.2447 41.9425 52.4897 42.1374 52.6759 42.383V41.6705H53.5488ZM51.9221 45.4831C52.1635 45.3447 52.3608 45.1407 52.4911 44.8947C52.6259 44.6248 52.6961 44.3272 52.6961 44.0254C52.6961 43.7237 52.6259 43.4261 52.4911 43.1562C52.3607 42.9116 52.1634 42.7091 51.9221 42.5726C51.6736 42.4356 51.3938 42.3652 51.11 42.3684C50.8253 42.364 50.5444 42.4344 50.2954 42.5726C50.0551 42.7112 49.8575 42.913 49.724 43.1562C49.5866 43.4253 49.5149 43.7232 49.5149 44.0254C49.5149 44.3277 49.5866 44.6256 49.724 44.8947C49.8574 45.1392 50.0549 45.3427 50.2954 45.4831C50.5435 45.624 50.8247 45.6962 51.11 45.6923C51.3943 45.695 51.6744 45.6228 51.9221 45.4831Z" fill="#27120C"/>
<path d="M58.356 46.1325C57.9869 45.9334 57.6798 45.6364 57.4684 45.2742C57.2579 44.8935 57.1475 44.4655 57.1475 44.0305C57.1475 43.5954 57.2579 43.1675 57.4684 42.7867C57.6793 42.4254 57.9866 42.1299 58.356 41.9333C58.7514 41.7224 59.1941 41.6161 59.6422 41.6245C60.0393 41.6178 60.4322 41.707 60.7875 41.8847C61.1166 42.0496 61.3885 42.3097 61.568 42.6311L60.9188 43.0518C60.7822 42.8372 60.592 42.662 60.3668 42.5436C60.1412 42.4281 59.8908 42.3697 59.6374 42.3734C59.3465 42.3691 59.0593 42.4394 58.8033 42.5776C58.5593 42.7138 58.3587 42.9161 58.2246 43.1612C58.0871 43.4316 58.0154 43.7307 58.0154 44.0341C58.0154 44.3375 58.0871 44.6366 58.2246 44.907C58.3576 45.153 58.5585 45.3556 58.8033 45.4906C59.0586 45.6311 59.3461 45.7023 59.6374 45.6973C59.8906 45.6998 60.1408 45.6415 60.3668 45.5271C60.592 45.4087 60.7822 45.2335 60.9188 45.0189L61.5704 45.4298C61.3899 45.7516 61.1183 46.013 60.7899 46.1812C60.4354 46.361 60.0421 46.4512 59.6447 46.4438C59.1954 46.453 58.7514 46.3458 58.356 46.1325Z" fill="#27120C"/>
<path d="M66.1265 42.4174H64.4001V46.3905H63.5442V42.4174H61.8154V41.6709H66.1265V42.4174Z" fill="#27120C"/>
<path d="M70.7343 41.9282C71.0904 42.1258 71.3843 42.4188 71.5829 42.7743C71.7858 43.1628 71.8917 43.5944 71.8917 44.0326C71.8917 44.4708 71.7858 44.9025 71.5829 45.291C71.385 45.6483 71.0911 45.9431 70.7343 46.142C70.357 46.3468 69.9332 46.4506 69.504 46.4435C69.1831 46.4468 68.8654 46.3804 68.5727 46.249C68.2871 46.1201 68.0368 45.924 67.8432 45.6776V48.1091H66.9971V41.6607H67.8165V42.4072C68.0048 42.1508 68.2561 41.9473 68.5459 41.8163C68.8514 41.6785 69.1835 41.6096 69.5186 41.6145C69.9439 41.6137 70.3624 41.7217 70.7343 41.9282ZM70.248 45.4879C70.4884 45.3481 70.6853 45.1444 70.817 44.8995C70.9544 44.6303 71.0261 44.3324 71.0261 44.0302C71.0261 43.728 70.9544 43.4301 70.817 43.1609C70.6851 42.9174 70.4881 42.7154 70.248 42.5774C69.9991 42.4392 69.7182 42.3688 69.4335 42.3731C69.1505 42.3696 68.8718 42.4418 68.6262 42.5822C68.3871 42.7215 68.1904 42.9233 68.0572 43.1658C67.9123 43.4309 67.8393 43.7294 67.8457 44.0314C67.8408 44.3335 67.9119 44.632 68.0523 44.8995C68.1826 45.1454 68.3799 45.3494 68.6213 45.4879C68.8705 45.625 69.1503 45.6968 69.4347 45.6968C69.7191 45.6968 69.9988 45.625 70.248 45.4879Z" fill="#27120C"/>
<path d="M77.5645 41.6705V46.3901H76.7451V45.6436C76.5571 45.9016 76.3059 46.1067 76.0156 46.2393C75.7107 46.3791 75.3784 46.4489 75.043 46.4436C74.6137 46.4509 74.1899 46.3471 73.8127 46.1421C73.4551 45.9442 73.1609 45.6492 72.9641 45.2911C72.7612 44.9026 72.6553 44.4709 72.6553 44.0327C72.6553 43.5945 72.7612 43.1628 72.9641 42.7744C73.1617 42.4182 73.4558 42.1249 73.8127 41.9283C74.1896 41.7224 74.6135 41.6177 75.043 41.6243C75.3651 41.6219 75.684 41.6873 75.9791 41.8164C76.2603 41.9425 76.5053 42.1374 76.6916 42.383V41.6705H77.5645ZM75.9451 45.488C76.1865 45.3495 76.3838 45.1455 76.5141 44.8996C76.6489 44.6296 76.7191 44.3321 76.7191 44.0303C76.7191 43.7286 76.6489 43.431 76.5141 43.161C76.3837 42.9164 76.1863 42.714 75.9451 42.5775C75.6966 42.4404 75.4168 42.3701 75.133 42.3732C74.8482 42.3688 74.5674 42.4393 74.3184 42.5775C74.0783 42.7155 73.8813 42.9175 73.7494 43.161C73.612 43.4302 73.5403 43.7281 73.5403 44.0303C73.5403 44.3325 73.612 44.6304 73.7494 44.8996C73.8811 45.1445 74.078 45.3482 74.3184 45.488C74.5665 45.6289 74.8477 45.7011 75.133 45.6971C75.4178 45.6983 75.6979 45.6245 75.9451 45.4831V45.488Z" fill="#27120C"/>
<path d="M82.7247 42.4174H80.9958V46.3905H80.14V42.4174H78.4111V41.6709H82.7247V42.4174Z" fill="#27120C"/>
<path d="M87.641 44.3163H83.8113C83.8318 44.5111 83.8907 44.7 83.9846 44.8719C84.0785 45.0439 84.2056 45.1955 84.3584 45.3181C84.6892 45.5772 85.1007 45.7115 85.5207 45.6974C85.7759 45.7069 86.0302 45.6608 86.2657 45.5621C86.5013 45.4634 86.7126 45.3146 86.8848 45.126L87.3565 45.6779C87.14 45.9292 86.8665 46.1252 86.5589 46.2493C86.1735 46.3947 85.7625 46.4598 85.3511 46.4406C84.9396 46.4213 84.5365 46.3182 84.1663 46.1375C83.7912 45.943 83.4804 45.644 83.2715 45.2767C83.0573 44.8973 82.9481 44.4675 82.9554 44.0318C82.9491 43.599 83.0546 43.1718 83.2618 42.7917C83.4595 42.4332 83.7523 42.1362 84.108 41.9334C84.4786 41.7244 84.8982 41.6178 85.3237 41.6246C85.7495 41.6153 86.1698 41.722 86.5395 41.9334C86.8908 42.1362 87.1781 42.4336 87.3686 42.7917C87.5713 43.1827 87.6733 43.6182 87.6653 44.0585C87.6619 44.1448 87.6538 44.2309 87.641 44.3163ZM84.2952 42.7212C84.0179 42.9738 83.8446 43.3205 83.8089 43.6938H86.8361C86.8 43.3206 86.6267 42.974 86.3498 42.7212C86.0619 42.4778 85.6971 42.3443 85.3201 42.3443C84.9431 42.3443 84.5782 42.4778 84.2903 42.7212H84.2952Z" fill="#27120C"/>
<path d="M92.4596 42.4174H89.853V46.3905H88.9971V41.6709H92.4717L92.4596 42.4174Z" fill="#27120C"/>
<path d="M93.3456 40.601C93.2929 40.5505 93.2512 40.4897 93.2232 40.4223C93.1951 40.3549 93.1813 40.2825 93.1827 40.2095C93.1812 40.1358 93.1949 40.0626 93.223 39.9944C93.251 39.9262 93.2928 39.8645 93.3456 39.8132C93.4002 39.7589 93.4652 39.7163 93.5366 39.6879C93.6081 39.6595 93.6845 39.6458 93.7614 39.6478C93.8372 39.6452 93.9127 39.6576 93.9837 39.6843C94.0546 39.711 94.1196 39.7515 94.1748 39.8034C94.228 39.8526 94.2702 39.9125 94.2987 39.9791C94.3272 40.0457 94.3413 40.1176 94.3401 40.19C94.3416 40.2654 94.3278 40.3403 94.2993 40.4101C94.2709 40.4799 94.2285 40.5432 94.1748 40.5961C94.1208 40.6504 94.0563 40.6931 93.9852 40.7215C93.9141 40.7499 93.838 40.7635 93.7614 40.7615C93.6849 40.7638 93.6087 40.7508 93.5373 40.7232C93.4659 40.6957 93.4007 40.6541 93.3456 40.601ZM93.3456 41.6708H94.2016V46.3904H93.3456V41.6708Z" fill="#27120C"/>
<path d="M99.6407 41.671V46.3906H98.8747V44.8952H97.4158L96.3824 46.3906H95.4463L96.594 44.7785C96.2715 44.6933 95.9845 44.5076 95.7745 44.2484C95.5502 43.918 95.4536 43.5172 95.5028 43.1209C95.552 42.7245 95.7437 42.3596 96.042 42.0941C96.4897 41.7889 97.0256 41.6401 97.5666 41.671H99.6407ZM96.6694 44.0539C96.9358 44.223 97.2494 44.3022 97.5641 44.28H98.8747V42.4175H97.6006C96.7812 42.4175 96.3703 42.7311 96.3703 43.3536C96.3593 43.4851 96.38 43.6174 96.4308 43.7393C96.4816 43.8612 96.5609 43.969 96.6621 44.0539H96.6694Z" fill="#27120C"/>
<path d="M107.176 42.4174H104.558V46.3905H103.714V41.6709H107.189L107.176 42.4174Z" fill="#27120C"/>
<path d="M108.6 46.1325C108.235 45.9323 107.931 45.6353 107.723 45.2741C107.517 44.8919 107.409 44.4645 107.409 44.0304C107.409 43.5963 107.517 43.1689 107.723 42.7867C107.931 42.4263 108.234 42.1309 108.6 41.9332C108.989 41.7235 109.426 41.6172 109.867 41.6244C110.307 41.6168 110.741 41.7232 111.127 41.9332C111.491 42.1311 111.794 42.4266 112 42.7867C112.207 43.1684 112.316 43.5959 112.316 44.0304C112.316 44.4649 112.207 44.8924 112 45.2741C111.793 45.6351 111.491 45.9321 111.127 46.1325C110.741 46.3444 110.307 46.4517 109.867 46.4437C109.425 46.4514 108.989 46.3442 108.6 46.1325ZM110.682 45.4881C110.922 45.3481 111.118 45.1444 111.248 44.8997C111.383 44.6297 111.453 44.3321 111.453 44.0304C111.453 43.7287 111.383 43.4311 111.248 43.1611C111.118 42.9177 110.921 42.7156 110.682 42.5776C110.431 42.4435 110.151 42.3733 109.866 42.3733C109.582 42.3733 109.301 42.4435 109.05 42.5776C108.81 42.7155 108.613 42.9176 108.481 43.1611C108.344 43.4303 108.272 43.7282 108.272 44.0304C108.272 44.3326 108.344 44.6305 108.481 44.8997C108.617 45.1444 108.818 45.3465 109.062 45.4832C109.313 45.6199 109.593 45.6915 109.878 45.6915C110.163 45.6915 110.444 45.6199 110.694 45.4832L110.682 45.4881Z" fill="#27120C"/>
<path d="M118.319 45.644V47.4871H117.519V46.3905H113.573V47.4871H112.761V45.644H113.004C113.305 45.6246 113.515 45.4009 113.626 45.0021C113.765 44.4322 113.847 43.8497 113.87 43.2635L113.94 41.6709H117.602V45.644H118.319ZM114.502 44.8003C114.463 45.1182 114.322 45.4147 114.098 45.644H116.744V42.4174H114.694L114.65 43.3268C114.636 43.8209 114.587 44.3134 114.502 44.8003Z" fill="#27120C"/>
<path d="M119.448 40.6009C119.395 40.5506 119.352 40.4899 119.324 40.4225C119.296 40.3551 119.281 40.2826 119.282 40.2095C119.281 40.1356 119.295 40.0623 119.324 39.9941C119.352 39.926 119.394 39.8644 119.448 39.8131C119.502 39.7589 119.566 39.7162 119.637 39.6878C119.708 39.6593 119.784 39.6457 119.861 39.6478C120.015 39.6426 120.164 39.6986 120.277 39.8034C120.33 39.8527 120.371 39.9127 120.4 39.9793C120.428 40.0459 120.441 40.1177 120.44 40.19C120.442 40.2652 120.428 40.3401 120.4 40.4099C120.372 40.4797 120.33 40.5431 120.277 40.5961C120.164 40.701 120.016 40.7594 119.862 40.7594C119.708 40.7594 119.56 40.701 119.448 40.5961V40.6009ZM119.433 41.6708H120.289V46.3904H119.433V41.6708Z" fill="#27120C"/>
<path d="M126.084 45.0895C126.094 45.2778 126.057 45.4658 125.975 45.6358C125.894 45.8059 125.77 45.9525 125.617 46.0621C125.198 46.3159 124.71 46.4339 124.221 46.4001H121.95V41.6805H124.139C124.597 41.6545 125.053 41.7645 125.449 41.9966C125.599 42.0914 125.722 42.2239 125.805 42.381C125.887 42.538 125.927 42.714 125.921 42.8914C125.927 43.1223 125.857 43.3488 125.721 43.5357C125.579 43.7242 125.386 43.8684 125.165 43.9515C125.432 43.9928 125.674 44.1323 125.844 44.3428C126.014 44.5532 126.1 44.8195 126.084 45.0895ZM122.787 43.7011H124.07C124.331 43.7183 124.59 43.6564 124.815 43.5236C124.895 43.4646 124.96 43.3863 125.002 43.2957C125.045 43.2052 125.064 43.1055 125.058 43.0057C125.058 42.5567 124.725 42.3313 124.061 42.3297H122.777L122.787 43.7011ZM124.96 45.5636C125.048 45.5079 125.12 45.4294 125.167 45.3366C125.214 45.2437 125.235 45.1399 125.228 45.036C125.236 44.9325 125.218 44.8287 125.175 44.734C125.133 44.6393 125.067 44.5567 124.985 44.4938C124.753 44.3573 124.485 44.2953 124.216 44.3163H122.789V45.7266H124.163C124.44 45.7464 124.718 45.6901 124.965 45.5636H124.96Z" fill="#27120C"/>
<path d="M131.478 41.6709V46.3905H130.622V42.4174H128.59L128.536 43.4702C128.518 44.0036 128.462 44.535 128.368 45.0604C128.309 45.4263 128.168 45.7743 127.958 46.0792C127.867 46.2037 127.748 46.3039 127.609 46.371C127.471 46.438 127.318 46.4698 127.165 46.4634C126.987 46.4598 126.81 46.4328 126.64 46.3832L126.693 45.6537C126.763 45.6703 126.835 45.6792 126.907 45.6805C127.017 45.6846 127.125 45.6575 127.22 45.6024C127.314 45.5473 127.391 45.4664 127.442 45.3693C127.57 45.1443 127.652 44.8965 127.685 44.6398C127.722 44.3529 127.753 43.9468 127.782 43.424L127.863 41.6782L131.478 41.6709Z" fill="#27120C"/>
<path d="M133.146 40.601C133.094 40.5505 133.052 40.4897 133.024 40.4223C132.996 40.3549 132.982 40.2825 132.984 40.2095C132.982 40.1358 132.996 40.0626 133.024 39.9944C133.052 39.9262 133.094 39.8645 133.146 39.8132C133.201 39.7589 133.266 39.7163 133.337 39.6879C133.409 39.6595 133.485 39.6458 133.562 39.6478C133.638 39.6452 133.714 39.6576 133.784 39.6843C133.855 39.711 133.92 39.7515 133.976 39.8034C134.029 39.8526 134.071 39.9125 134.099 39.9791C134.128 40.0457 134.142 40.1176 134.141 40.19C134.142 40.2654 134.129 40.3403 134.1 40.4101C134.072 40.4799 134.029 40.5432 133.976 40.5961C133.922 40.6504 133.857 40.6931 133.786 40.7215C133.715 40.7499 133.639 40.7635 133.562 40.7615C133.486 40.7638 133.409 40.7508 133.338 40.7232C133.267 40.6957 133.202 40.6541 133.146 40.601ZM133.146 41.6708H134.002V46.3904H133.134L133.146 41.6708Z" fill="#27120C"/>
</svg>
