<svg width="36" height="22" viewBox="0 0 36 22" fill="none" xmlns="http://www.w3.org/2000/svg">
<path d="M26.076 4.05521C26.076 4.05521 26.2386 2.79936 25.8063 2.20511C25.5676 1.87693 25.3398 1.76763 24.9974 1.54436C24.6053 1.28868 24.3793 0.919045 23.9188 1.01576C23.5891 1.085 23.3913 1.2468 23.2446 1.54436C23.06 1.91903 23.3795 2.60156 23.3795 2.60156V2.86586M26.076 4.05521L26.6153 4.84811H25.267M26.076 4.05521L23.5143 2.86586H23.3795M23.3795 2.86586C23.3795 2.86586 22.3999 3.6 21.8964 4.18736C20.6634 5.62557 20.1437 8.68046 20.1437 8.68046H16.0989M16.0989 8.68046L10.9755 3.79091L10.2662 5.24456M16.0989 8.68046L14.0091 11.5878M11.9193 14.4951C10.4363 11.5878 9.49239 9.47335 9.49243 8.54831C9.49248 7.62328 9.24961 7.45763 9.49243 6.83036C9.54949 6.68296 9.67014 6.46617 9.67014 6.46617M11.9193 14.4951C12.7091 15.424 13.0151 16.0253 14.0091 16.7416C15.0174 17.4682 16.9078 18.0631 16.9078 18.0631C16.9078 18.0631 17.4018 18.087 17.7168 18.0631M11.9193 14.4951C11.9935 14.3918 12.1093 14.2308 12.1093 14.2308M25.267 4.84811C25.267 4.84811 26.8173 5.64677 26.4805 6.30176C26.2471 6.75565 25.267 6.83036 25.267 6.83036M25.267 4.84811V6.83036M25.267 6.83036C25.267 6.83036 25.5367 12.3806 25.267 13.3057C24.9974 14.2308 24.2704 15.2763 23.2446 16.213C22.1408 17.221 20.2785 17.931 19.874 18.0631C19.4696 18.1952 18.0318 18.0392 17.7168 18.0631M13.1327 7.88756L10.2662 5.24456M10.2662 5.24456L9.67014 6.46617M11.9193 8.54831L9.67014 6.46617M17.7168 11.5878H14.0091M14.0091 11.5878L13.0592 12.9093M17.1775 12.9093H13.0592M13.0592 12.9093L12.1093 14.2308M21.2223 11.5878L21.0874 12.7771L20.2785 13.7022L19.0651 14.2308H12.1093M21.0874 21.1026H18.3909M17.4471 21.1026H18.3909M18.3909 21.1026L17.9864 19.2525C17.9864 19.2525 17.8221 18.5276 17.7168 18.0631" stroke="#BF7742" stroke-width="0.717949"/>
</svg>
