<svg width="36" height="26" viewBox="0 0 36 26" fill="none" xmlns="http://www.w3.org/2000/svg">
<path d="M12 14.5714H16L16.5714 15.1429L17.1429 22H18.2857V18.8571L18.8571 15.1429H19.4286L20 18L20.5714 20.5714L21.1429 22H22.2857L22 19.1429L21.7143 15.1429L26.2857 11.1429H30.8571L32 9.42857L26.2857 4V4.28571L26 5.71429L23.1429 6.57143H5.71429M12 14.5714L11.4286 14H9.71429L8.51429 15.7143M12 14.5714L11.1429 16.8571L12.5714 20.8571V22H11.4286L9.14286 17.4286L8.51429 15.7143M5.71429 6.57143V9.14286L6.28571 10V12L6.85714 12.8571V13.4286L6.28571 14.5714L5.71429 15.1429V16.8571L6.28571 20.2857L6.85714 22H8V18.2857L7.71429 16.8571L8.51429 15.7143M5.71429 6.57143H4.85714L4 7.71429V15.1429" stroke="#BF7742" stroke-width="0.717949"/>
</svg>
