<svg width="36" height="22" viewBox="0 0 36 22" fill="none" xmlns="http://www.w3.org/2000/svg">
<path d="M19.5228 1.0062C19.5228 1.0062 22.1312 0.876881 22.2616 1.0062C22.392 1.13552 24.2385 3.07537 24.2385 3.07537M19.5228 1.0062C19.5228 1.0062 21.3486 2.04078 21.4791 2.17011C21.6096 2.29944 22.6528 3.46334 22.6528 3.46334V3.72199M19.5228 1.0062L24.2385 3.07537M27.3479 7.34303C27.3479 7.34303 27.609 7.30777 27.7392 7.21371C27.8876 7.10646 28 6.82574 28 6.82574C28 6.82574 27.8697 6.0498 27.7392 5.79115C27.6086 5.53251 25.7828 3.85131 25.6525 3.72199C25.5221 3.59266 25.1308 3.59266 25.1308 3.59266M27.3479 7.34303V8.89491H26.5654L25.9133 7.34303M27.3479 7.34303H25.9133M25.9133 7.34303H25.2612C25.2612 7.34303 24.7394 10.4468 24.4787 11.2227C24.218 11.9987 24.0429 12.1908 23.6962 12.7746C23.2515 13.5233 22.392 14.5851 22.392 14.5851M22.392 14.5851C22.392 14.5851 22.7559 15.9156 22.9137 16.7836C23.0504 17.5358 23.069 17.9664 23.1745 18.7235C23.2732 19.431 23.4353 20.146 23.4353 20.534C23.4353 20.922 23.4353 21.0513 23.4353 21.0513H22.392C22.392 21.0513 22.2449 20.182 22.1312 19.6287C22.0374 19.1725 21.9676 18.9204 21.8703 18.4648C21.7628 17.961 21.7223 17.6743 21.6095 17.1716C21.4727 16.5618 21.2182 15.6197 21.2182 15.6197M22.392 14.5851L21.2182 15.6197M21.2182 15.6197C21.2182 15.6197 20.5662 16.0077 20.4357 16.3957C20.3052 16.7836 20.1037 18.1209 20.0445 19.2408C20.0071 19.9469 20.0445 21.0513 20.0445 21.0513H19.2619L19.0011 14.1972H16.5232M16.5232 14.1972C16.5232 14.1972 13.7844 16.2663 13.7844 16.6543C13.7844 17.0423 13.6841 18.3142 13.7844 19.3701C13.8472 20.0314 14.0452 21.0513 14.0452 21.0513H13.2627C13.2627 21.0513 12.8954 20.1196 12.741 19.4994C12.5926 18.9029 12.5927 18.5517 12.4802 17.9475C12.3858 17.4411 12.3003 17.163 12.2193 16.6543C12.1553 16.2521 12.0889 15.6197 12.0889 15.6197M16.5232 14.1972H13.6539L12.0889 15.6197M12.0889 15.6197L10.7847 16.6543V21.0513H10.0022C10.0022 21.0513 9.73885 19.9527 9.61097 19.2408C9.48465 18.5376 9.44615 18.1381 9.35013 17.4302C9.24066 16.6232 9.13284 16.1743 9.08929 15.3611C9.05689 14.7559 8.95878 14.0678 9.08929 13.8092C9.21981 13.5505 9.66041 13.5105 9.74139 13.1626C9.77574 13.0149 9.74835 12.926 9.74139 12.7746C9.7025 11.9289 9.08929 10.7054 9.08929 10.7054C9.08929 10.7054 8.21143 10.0378 8.04594 9.4122C7.94257 9.02139 8.04594 8.37762 8.04594 8.37762M8.04594 7.98965V8.37762M8.04594 8.37762L10.1326 9.4122C10.1326 9.4122 11.176 8.50695 11.6977 8.37762C12.2193 8.24829 21.0878 8.37762 21.0878 8.37762L22.7833 5.27386V5.01522H23.1745C23.1745 5.01522 22.392 5.14454 22.1312 5.01522C21.8703 4.88589 20.827 3.72199 20.827 3.72199H22.6528M22.6528 3.72199L25.1308 3.59266M24.2385 3.07537L24.6091 3.46334L25.1308 3.59266" stroke="#BF7742" stroke-width="0.717949"/>
</svg>
