<svg width="40" height="40" viewBox="0 0 40 40" fill="none" xmlns="http://www.w3.org/2000/svg">
<g clip-path="url(#clip0_382_10649)">
<path fill-rule="evenodd" clip-rule="evenodd" d="M18.8331 12.9551C16.9645 12.9551 15.1724 13.6974 13.8512 15.0186C12.5299 16.3399 11.7876 18.132 11.7876 20.0005C11.7876 21.8691 12.5299 23.6611 13.8512 24.9824C15.1724 26.3037 16.9645 27.046 18.8331 27.046C20.7016 27.046 22.4937 26.3037 23.8149 24.9824C25.1362 23.6611 25.8785 21.8691 25.8785 20.0005C25.8785 18.132 25.1362 16.3399 23.8149 15.0186C22.4937 13.6974 20.7016 12.9551 18.8331 12.9551ZM14.6058 20.0005C14.6058 21.1217 15.0512 22.1969 15.8439 22.9897C16.6367 23.7824 17.7119 24.2278 18.8331 24.2278C19.9542 24.2278 21.0294 23.7824 21.8222 22.9897C22.615 22.1969 23.0603 21.1217 23.0603 20.0005C23.0603 18.8794 22.615 17.8042 21.8222 17.0114C21.0294 16.2186 19.9542 15.7733 18.8331 15.7733C17.7119 15.7733 16.6367 16.2186 15.8439 17.0114C15.0512 17.8042 14.6058 18.8794 14.6058 20.0005Z" fill="#BF7742"/>
<path d="M27.2882 10.1367C26.9145 10.1367 26.5561 10.2852 26.2919 10.5494C26.0276 10.8137 25.8792 11.1721 25.8792 11.5458C25.8792 11.9195 26.0276 12.2779 26.2919 12.5422C26.5561 12.8064 26.9145 12.9549 27.2882 12.9549C27.662 12.9549 28.0204 12.8064 28.2846 12.5422C28.5489 12.2779 28.6973 11.9195 28.6973 11.5458C28.6973 11.1721 28.5489 10.8137 28.2846 10.5494C28.0204 10.2852 27.662 10.1367 27.2882 10.1367Z" fill="#BF7742"/>
<path fill-rule="evenodd" clip-rule="evenodd" d="M8.96974 4.5C7.47488 4.5 6.04125 5.09383 4.98423 6.15085C3.9272 7.20788 3.33337 8.64151 3.33337 10.1364V29.8636C3.33337 31.3585 3.9272 32.7921 4.98423 33.8491C6.04125 34.9062 7.47488 35.5 8.96974 35.5H28.697C30.1919 35.5 31.6255 34.9062 32.6825 33.8491C33.7395 32.7921 34.3334 31.3585 34.3334 29.8636V10.1364C34.3334 8.64151 33.7395 7.20788 32.6825 6.15085C31.6255 5.09383 30.1919 4.5 28.697 4.5H8.96974ZM28.697 7.31818H8.96974C8.22231 7.31818 7.50549 7.6151 6.97698 8.14361C6.44847 8.67212 6.15156 9.38894 6.15156 10.1364V29.8636C6.15156 30.6111 6.44847 31.3279 6.97698 31.8564C7.50549 32.3849 8.22231 32.6818 8.96974 32.6818H28.697C29.4444 32.6818 30.1613 32.3849 30.6898 31.8564C31.2183 31.3279 31.5152 30.6111 31.5152 29.8636V10.1364C31.5152 9.38894 31.2183 8.67212 30.6898 8.14361C30.1613 7.6151 29.4444 7.31818 28.697 7.31818Z" fill="#BF7742"/>
</g>
<defs>
<clipPath id="clip0_382_10649">
<rect width="31" height="31" fill="white" transform="translate(3.33337 4.5)"/>
</clipPath>
</defs>
</svg>
