<svg width="40" height="40" viewBox="0 0 40 40" fill="none" xmlns="http://www.w3.org/2000/svg">
<g clip-path="url(#clip0_382_10644)">
<path d="M30.3327 4.5C31.703 4.5 33.0172 5.04434 33.9861 6.01328C34.955 6.98222 35.4994 8.29638 35.4994 9.66667V30.3333C35.4994 31.7036 34.955 33.0178 33.9861 33.9867C33.0172 34.9557 31.703 35.5 30.3327 35.5H9.66606C8.29577 35.5 6.98161 34.9557 6.01267 33.9867C5.04373 33.0178 4.49939 31.7036 4.49939 30.3333V9.66667C4.49939 8.29638 5.04373 6.98222 6.01267 6.01328C6.98161 5.04434 8.29577 4.5 9.66606 4.5H30.3327ZM30.3327 7.94444H9.66606C9.20929 7.94444 8.77124 8.12589 8.44826 8.44887C8.12528 8.77185 7.94383 9.2099 7.94383 9.66667V30.3333C7.94383 30.7901 8.12528 31.2281 8.44826 31.5511C8.77124 31.8741 9.20929 32.0556 9.66606 32.0556H30.3327C30.7895 32.0556 31.2275 31.8741 31.5505 31.5511C31.8735 31.2281 32.0549 30.7901 32.0549 30.3333V9.66667C32.0549 9.2099 31.8735 8.77185 31.5505 8.44887C31.2275 8.12589 30.7895 7.94444 30.3327 7.94444ZM13.1105 16.5556C13.5323 16.5556 13.9395 16.7105 14.2547 16.9908C14.5699 17.2711 14.7713 17.6573 14.8207 18.0763L14.8327 18.2778V26.8889C14.8322 27.3278 14.6642 27.7501 14.3628 28.0692C14.0615 28.3884 13.6496 28.5805 13.2114 28.6062C12.7732 28.632 12.3417 28.4894 12.0051 28.2077C11.6685 27.9259 11.4522 27.5263 11.4003 27.0904L11.3883 26.8889V18.2778C11.3883 17.821 11.5697 17.383 11.8927 17.06C12.2157 16.737 12.6537 16.5556 13.1105 16.5556ZM18.2772 14.8333C18.6805 14.8333 19.0711 14.9748 19.3808 15.2332C19.6905 15.4916 19.8996 15.8505 19.9718 16.2473C20.3187 16.0469 20.677 15.867 21.0448 15.7082C22.1935 15.2174 23.914 14.947 25.4674 15.4344C26.2821 15.6927 27.1001 16.1749 27.7063 16.9964C28.2488 17.7284 28.5416 18.6188 28.6002 19.6194L28.6105 20V26.8889C28.61 27.3278 28.4419 27.7501 28.1406 28.0692C27.8393 28.3884 27.4274 28.5805 26.9892 28.6062C26.551 28.632 26.1195 28.4894 25.7829 28.2077C25.4463 27.9259 25.23 27.5263 25.1781 27.0904L25.1661 26.8889V20C25.1661 19.4317 25.0283 19.1664 24.9387 19.0442C24.81 18.8844 24.6329 18.7708 24.4341 18.7204C23.8348 18.5309 22.9719 18.6308 22.3984 18.8754C21.5373 19.2439 20.7486 19.8226 20.2112 20.3582L19.9994 20.5856V26.8889C19.9989 27.3278 19.8308 27.7501 19.5295 28.0692C19.2281 28.3884 18.8163 28.5805 18.3781 28.6062C17.9399 28.632 17.5084 28.4894 17.1718 28.2077C16.8352 27.9259 16.6188 27.5263 16.567 27.0904L16.5549 26.8889V16.5556C16.5549 16.0988 16.7364 15.6607 17.0594 15.3378C17.3824 15.0148 17.8204 14.8333 18.2772 14.8333ZM13.1105 11.3889C13.5673 11.3889 14.0053 11.5703 14.3283 11.8933C14.6513 12.2163 14.8327 12.6543 14.8327 13.1111C14.8327 13.5679 14.6513 14.0059 14.3283 14.3289C14.0053 14.6519 13.5673 14.8333 13.1105 14.8333C12.6537 14.8333 12.2157 14.6519 11.8927 14.3289C11.5697 14.0059 11.3883 13.5679 11.3883 13.1111C11.3883 12.6543 11.5697 12.2163 11.8927 11.8933C12.2157 11.5703 12.6537 11.3889 13.1105 11.3889Z" fill="#BF7742"/>
</g>
<defs>
<clipPath id="clip0_382_10644">
<rect width="31" height="31" fill="white" transform="translate(4.5 4.5)"/>
</clipPath>
</defs>
</svg>
