<svg width="40" height="40" viewBox="0 0 40 40" fill="none" xmlns="http://www.w3.org/2000/svg">
<path fill-rule="evenodd" clip-rule="evenodd" d="M9.16242 35.5C8.55006 35.5003 7.94364 35.3799 7.37784 35.1457C6.81203 34.9115 6.29793 34.5681 5.86493 34.1351C5.43192 33.7021 5.0885 33.188 4.8543 32.6222C4.6201 32.0564 4.4997 31.4499 4.5 30.8376V9.16242C4.4997 8.55006 4.6201 7.94364 4.8543 7.37784C5.0885 6.81203 5.43192 6.29793 5.86493 5.86493C6.29793 5.43192 6.81203 5.08851 7.37784 4.8543C7.94364 4.6201 8.55006 4.4997 9.16242 4.5H30.8376C31.4499 4.4997 32.0564 4.6201 32.6222 4.8543C33.188 5.08851 33.7021 5.43192 34.1351 5.86493C34.5681 6.29793 34.9115 6.81203 35.1457 7.37784C35.3799 7.94364 35.5003 8.55006 35.5 9.16242V30.8376C35.5003 31.4499 35.3799 32.0564 35.1457 32.6222C34.9115 33.188 34.5681 33.7021 34.1351 34.1351C33.7021 34.5681 33.188 34.9115 32.6222 35.1457C32.0564 35.3799 31.4499 35.5003 30.8376 35.5H9.16242ZM28.1056 22.4046H24.8318L24.8182 32.8917H30.8376C31.4258 32.8917 32.9167 32.2368 32.9167 31.1313V9.39474C32.9167 8.7564 32.5069 8.21453 32.0556 7.76316C31.6042 7.31179 30.9717 6.94737 30.3333 6.94737H8.83951C7.94444 6.94737 7.37784 7.76316 7.37784 7.76316C7.37784 7.76316 7.17142 8.52408 7.17142 9.16242V30.8376C7.17142 31.383 7.94444 32.2368 7.94444 32.2368C7.94444 32.2368 8.66486 32.8917 9.30319 32.8917H21.2192V22.4046H17.6067V18.7921H21.2192V16.8526C21.2192 13.1723 23.0097 11.5693 26.051 11.5693C27.4847 11.5693 28.2546 11.6731 28.6249 11.7251H28.6475V15.1795H26.5658C25.5159 15.1795 25.0192 15.6311 24.8701 16.5342C24.8339 16.7711 24.8165 17.0104 24.8182 17.25V18.7921H28.6114L28.0966 22.4046H28.1056Z" fill="#BF7742"/>
</svg>
