<svg width="160" height="68" viewBox="0 0 160 68" fill="none" xmlns="http://www.w3.org/2000/svg">
<path d="M37.9723 46.0312H38.6439V47.6214H40.786V46.0312H41.4653V49.7771H40.786V48.2081H38.6439V49.7771H37.9646L37.9723 46.0312Z" fill="#F0E7DA"/>
<path d="M43.3865 49.5724C43.0964 49.4139 42.8559 49.1781 42.6917 48.8911C42.5271 48.5882 42.4408 48.2489 42.4408 47.904C42.4408 47.5592 42.5271 47.2199 42.6917 46.9169C42.8554 46.6306 43.0961 46.3959 43.3865 46.2395C43.6951 46.0731 44.0413 45.9887 44.3919 45.9944C44.7407 45.9884 45.0852 46.0728 45.3916 46.2395C45.681 46.3966 45.9209 46.6311 46.0844 46.9169C46.2491 47.2199 46.3354 47.5592 46.3354 47.904C46.3354 48.2489 46.2491 48.5882 46.0844 48.8911C45.9205 49.1776 45.6808 49.4133 45.3916 49.5724C45.0857 49.7406 44.741 49.8257 44.3919 49.8194C44.0411 49.8255 43.6946 49.7404 43.3865 49.5724ZM45.0384 49.061C45.2286 48.9499 45.3843 48.7882 45.4881 48.5939C45.5951 48.3797 45.6508 48.1435 45.6508 47.904C45.6508 47.6645 45.5951 47.4283 45.4881 47.2141C45.3842 47.0209 45.2285 46.8605 45.0384 46.7509C44.8392 46.6445 44.6168 46.5888 44.391 46.5888C44.1651 46.5888 43.9427 46.6445 43.7435 46.7509C43.5534 46.861 43.3972 47.0212 43.2919 47.2141C43.1828 47.4277 43.1259 47.6642 43.1259 47.904C43.1259 48.1439 43.1828 48.3803 43.2919 48.5939C43.397 48.7879 43.5532 48.9495 43.7435 49.061C43.9421 49.1694 44.1647 49.2262 44.391 49.2262C44.6172 49.2262 44.8399 49.1694 45.0384 49.061Z" fill="#F0E7DA"/>
<path d="M50.6078 48.7438C50.6161 48.8932 50.5865 49.0424 50.5217 49.1774C50.4569 49.3123 50.3591 49.4287 50.2372 49.5157C49.9053 49.7175 49.5189 49.8112 49.1314 49.7839H47.327V46.0381H49.0639C49.4271 46.0175 49.7884 46.1048 50.1021 46.289C50.2215 46.3639 50.319 46.4691 50.3848 46.5938C50.4505 46.7185 50.4822 46.8583 50.4765 46.9992C50.4816 47.1824 50.426 47.3622 50.3183 47.5106C50.2055 47.6605 50.0522 47.7751 49.8764 47.8406C50.0891 47.8725 50.2821 47.9829 50.4175 48.1501C50.5529 48.3173 50.6208 48.529 50.6078 48.7438ZM47.9928 47.6418H49.0098C49.2164 47.6559 49.4224 47.6068 49.6004 47.5009C49.6646 47.4542 49.716 47.3921 49.7497 47.3202C49.7834 47.2483 49.7985 47.1691 49.7934 47.0899C49.7934 46.7335 49.529 46.5547 49.0002 46.5534H47.9832L47.9928 47.6418ZM49.7181 49.1201C49.7876 49.0755 49.8439 49.0132 49.8812 48.9396C49.9186 48.866 49.9355 48.7837 49.9304 48.7013C49.9363 48.6192 49.9218 48.5369 49.8881 48.4618C49.8544 48.3867 49.8026 48.3211 49.7374 48.2709C49.5527 48.1626 49.3392 48.1134 49.1256 48.1301H47.9832V49.2494H49.0639C49.2865 49.2659 49.5094 49.2212 49.7085 49.1201H49.7181Z" fill="#F0E7DA"/>
<path d="M55.1794 46.031V49.7769H54.529V49.1844C54.3798 49.3891 54.1805 49.552 53.9501 49.6572C53.7081 49.7681 53.4443 49.8235 53.1781 49.8193C52.8374 49.8252 52.501 49.7427 52.2016 49.58C51.9178 49.4224 51.6838 49.1884 51.5262 48.9046C51.3664 48.5959 51.2831 48.2534 51.2831 47.9059C51.2831 47.5583 51.3664 47.2159 51.5262 46.9072C51.6843 46.6248 51.9183 46.3922 52.2016 46.2356C52.5008 46.0722 52.8373 45.9891 53.1781 45.9944C53.4337 45.9924 53.6869 46.0444 53.9211 46.1468C54.1443 46.2469 54.3387 46.4016 54.4866 46.5965V46.031H55.1794ZM53.8883 49.057C54.0799 48.9471 54.2365 48.7852 54.3399 48.59C54.4469 48.3758 54.5026 48.1396 54.5026 47.9001C54.5026 47.6606 54.4469 47.4244 54.3399 47.2102C54.2364 47.016 54.0798 46.8554 53.8883 46.747C53.691 46.6382 53.469 46.5824 53.2437 46.5849C53.0178 46.5814 52.7948 46.6373 52.5972 46.747C52.4065 46.857 52.2496 47.0172 52.1437 47.2102C52.0346 47.4238 51.9777 47.6602 51.9777 47.9001C51.9777 48.14 52.0346 48.3764 52.1437 48.59C52.2496 48.7841 52.4064 48.9456 52.5972 49.057C52.7942 49.1688 53.0173 49.2261 53.2437 49.223C53.4694 49.2251 53.6917 49.1679 53.8883 49.057Z" fill="#F0E7DA"/>
<path d="M58.9943 49.5724C58.7014 49.4144 58.4577 49.1787 58.2899 48.8912C58.1228 48.589 58.0352 48.2494 58.0352 47.9041C58.0352 47.5588 58.1228 47.2191 58.2899 46.917C58.4573 46.6302 58.7012 46.3956 58.9943 46.2396C59.3081 46.0722 59.6596 45.9878 60.0152 45.9945C60.3304 45.9892 60.6422 46.06 60.9242 46.201C61.1854 46.3319 61.4012 46.5383 61.5436 46.7935L61.0284 47.1273C60.92 46.957 60.769 46.8179 60.5903 46.724C60.4112 46.6323 60.2125 46.586 60.0113 46.5889C59.7805 46.5855 59.5526 46.6413 59.3494 46.751C59.1557 46.859 58.9965 47.0196 58.8901 47.2142C58.7809 47.4288 58.7241 47.6662 58.7241 47.907C58.7241 48.1478 58.7809 48.3852 58.8901 48.5998C58.9956 48.795 59.1551 48.9558 59.3494 49.063C59.552 49.1744 59.7802 49.231 60.0113 49.227C60.2124 49.229 60.4109 49.1827 60.5903 49.0919C60.769 48.998 60.92 48.8589 61.0284 48.6886L61.5456 49.0147C61.4023 49.2701 61.1868 49.4776 60.9261 49.611C60.6447 49.7538 60.3326 49.8253 60.0171 49.8195C59.6606 49.8268 59.3082 49.7417 58.9943 49.5724Z" fill="#F0E7DA"/>
<path d="M65.1631 46.6237H63.7929V49.7771H63.1136V46.6237H61.7415V46.0312H65.1631V46.6237Z" fill="#F0E7DA"/>
<path d="M68.8198 46.2355C69.1024 46.3923 69.3357 46.6249 69.4933 46.9071C69.6543 47.2153 69.7384 47.558 69.7384 47.9057C69.7384 48.2535 69.6543 48.5962 69.4933 48.9045C69.3363 49.188 69.103 49.422 68.8198 49.5799C68.5204 49.7424 68.184 49.8248 67.8433 49.8192C67.5887 49.8218 67.3365 49.7691 67.1042 49.6648C66.8775 49.5625 66.6789 49.4069 66.5252 49.2113V51.1411H65.8536V46.0232H66.504V46.6156C66.6535 46.4122 66.8529 46.2506 67.0829 46.1467C67.3254 46.0373 67.5889 45.9826 67.8549 45.9865C68.1925 45.9859 68.5247 46.0716 68.8198 46.2355ZM68.4338 49.0608C68.6246 48.9498 68.7809 48.7881 68.8854 48.5937C68.9945 48.3801 69.0514 48.1437 69.0514 47.9038C69.0514 47.664 68.9945 47.4275 68.8854 47.2139C68.7808 47.0206 68.6244 46.8603 68.4338 46.7507C68.2362 46.641 68.0133 46.5852 67.7873 46.5886C67.5628 46.5858 67.3416 46.6431 67.1466 46.7546C66.9569 46.8651 66.8008 47.0252 66.695 47.2178C66.58 47.4282 66.5221 47.665 66.5272 47.9048C66.5233 48.1446 66.5797 48.3814 66.6912 48.5937C66.7946 48.7889 66.9512 48.9509 67.1428 49.0608C67.3406 49.1696 67.5626 49.2266 67.7883 49.2266C68.014 49.2266 68.2361 49.1696 68.4338 49.0608Z" fill="#F0E7DA"/>
<path d="M74.2409 46.031V49.7769H73.5906V49.1844C73.4414 49.3891 73.242 49.552 73.0116 49.6572C72.7696 49.7681 72.5059 49.8235 72.2397 49.8193C71.899 49.8252 71.5626 49.7427 71.2632 49.58C70.9794 49.423 70.7459 49.1888 70.5897 48.9046C70.4287 48.5963 70.3446 48.2537 70.3446 47.9059C70.3446 47.5581 70.4287 47.2155 70.5897 46.9072C70.7466 46.6245 70.98 46.3917 71.2632 46.2356C71.5624 46.0722 71.8988 45.9891 72.2397 45.9944C72.4953 45.9924 72.7485 46.0444 72.9827 46.1468C73.2059 46.2469 73.4003 46.4016 73.5481 46.5965V46.031H74.2409ZM72.9557 49.0609C73.1473 48.951 73.3038 48.7891 73.4072 48.5939C73.5143 48.3796 73.57 48.1434 73.57 47.904C73.57 47.6645 73.5143 47.4283 73.4072 47.214C73.3038 47.0199 73.1471 46.8592 72.9557 46.7509C72.7584 46.6421 72.5363 46.5863 72.3111 46.5888C72.0851 46.5853 71.8622 46.6412 71.6646 46.7509C71.474 46.8604 71.3177 47.0208 71.213 47.214C71.1039 47.4277 71.047 47.6641 71.047 47.904C71.047 48.1438 71.1039 48.3803 71.213 48.5939C71.3175 48.7883 71.4738 48.9499 71.6646 49.0609C71.8615 49.1727 72.0847 49.23 72.3111 49.2269C72.5371 49.2278 72.7595 49.1693 72.9557 49.057V49.0609Z" fill="#F0E7DA"/>
<path d="M78.3362 46.6237H76.964V49.7771H76.2847V46.6237H74.9126V46.0312H78.3362V46.6237Z" fill="#F0E7DA"/>
<path d="M82.2375 48.1299H79.198C79.2143 48.2846 79.261 48.4345 79.3356 48.5709C79.4101 48.7074 79.5109 48.8278 79.6322 48.925C79.8948 49.1307 80.2214 49.2373 80.5547 49.2261C80.7573 49.2337 80.9591 49.197 81.146 49.1187C81.333 49.0404 81.5007 48.9223 81.6373 48.7726L82.0117 49.2107C81.8399 49.4101 81.6228 49.5656 81.3787 49.6642C81.0729 49.7796 80.7466 49.8312 80.4201 49.8159C80.0935 49.8007 79.7735 49.7188 79.4798 49.5754C79.182 49.421 78.9354 49.1838 78.7696 48.8922C78.5995 48.5911 78.5129 48.25 78.5187 47.9042C78.5137 47.5606 78.5974 47.2216 78.7619 46.9199C78.9188 46.6354 79.1512 46.3997 79.4335 46.2387C79.7276 46.0728 80.0607 45.9882 80.3984 45.9936C80.7363 45.9862 81.0699 46.071 81.3633 46.2387C81.6421 46.3997 81.8701 46.6357 82.0214 46.9199C82.1823 47.2303 82.2632 47.5759 82.2568 47.9254C82.2541 47.9939 82.2477 48.0622 82.2375 48.1299ZM79.5821 46.864C79.362 47.0644 79.2244 47.3396 79.1961 47.6359H81.5987C81.57 47.3397 81.4325 47.0646 81.2128 46.864C80.9842 46.6708 80.6947 46.5648 80.3955 46.5648C80.0963 46.5648 79.8067 46.6708 79.5782 46.864H79.5821Z" fill="#F0E7DA"/>
<path d="M86.0629 46.6237H83.9941V49.7771H83.3148V46.0312H86.0726L86.0629 46.6237Z" fill="#F0E7DA"/>
<path d="M86.766 45.1816C86.7241 45.1415 86.691 45.0933 86.6688 45.0398C86.6465 44.9863 86.6356 44.9288 86.6367 44.8709C86.6355 44.8124 86.6464 44.7543 86.6686 44.7002C86.6909 44.646 86.724 44.5971 86.766 44.5563C86.8093 44.5133 86.8608 44.4795 86.9176 44.4569C86.9743 44.4343 87.035 44.4235 87.096 44.4251C87.1561 44.423 87.2161 44.4328 87.2724 44.454C87.3287 44.4752 87.3803 44.5074 87.4241 44.5486C87.4663 44.5876 87.4998 44.6352 87.5224 44.688C87.545 44.7409 87.5562 44.7979 87.5553 44.8554C87.5565 44.9153 87.5455 44.9747 87.5229 45.0301C87.5003 45.0855 87.4667 45.1358 87.4241 45.1777C87.3812 45.2208 87.33 45.2547 87.2736 45.2772C87.2172 45.2998 87.1567 45.3106 87.096 45.309C87.0353 45.3108 86.9748 45.3005 86.9181 45.2786C86.8615 45.2567 86.8097 45.2237 86.766 45.1816ZM86.766 46.0307H87.4453V49.7765H86.766V46.0307Z" fill="#F0E7DA"/>
<path d="M91.7621 46.0305V49.7763H91.1542V48.5895H89.9963L89.1761 49.7763H88.4331L89.344 48.4968C89.088 48.4292 88.8602 48.2819 88.6936 48.0761C88.5156 47.8139 88.4389 47.4958 88.478 47.1813C88.517 46.8667 88.6691 46.577 88.9059 46.3663C89.2612 46.1241 89.6866 46.006 90.1159 46.0305H91.7621ZM89.4038 47.9218C89.6153 48.056 89.8642 48.1189 90.114 48.1012H91.1542V46.623H90.1429C89.4926 46.623 89.1665 46.8719 89.1665 47.366C89.1577 47.4704 89.1742 47.5754 89.2145 47.6721C89.2548 47.7688 89.3177 47.8544 89.398 47.9218H89.4038Z" fill="#F0E7DA"/>
<path d="M97.742 46.6237H95.6635V49.7771H94.9939V46.0312H97.7517L97.742 46.6237Z" fill="#F0E7DA"/>
<path d="M98.8729 49.5724C98.5826 49.4135 98.3416 49.1778 98.1762 48.8911C98.0129 48.5878 97.9274 48.2486 97.9274 47.904C97.9274 47.5595 98.0129 47.2203 98.1762 46.9169C98.3412 46.6309 98.5824 46.3964 98.8729 46.2395C99.1815 46.0731 99.5277 45.9887 99.8783 45.9944C100.227 45.9884 100.572 46.0728 100.878 46.2395C101.167 46.3966 101.407 46.6311 101.571 46.9169C101.735 47.2199 101.822 47.5592 101.822 47.904C101.822 48.2489 101.735 48.5882 101.571 48.8911C101.407 49.1776 101.167 49.4133 100.878 49.5724C100.572 49.7406 100.227 49.8257 99.8783 49.8194C99.5275 49.8255 99.181 49.7404 98.8729 49.5724ZM100.525 49.061C100.715 48.9499 100.871 48.7882 100.974 48.5939C101.082 48.3797 101.137 48.1435 101.137 47.904C101.137 47.6645 101.082 47.4283 100.974 47.2141C100.871 47.0209 100.715 46.8605 100.525 46.7509C100.326 46.6445 100.103 46.5888 99.8774 46.5888C99.6515 46.5888 99.4291 46.6445 99.2299 46.7509C99.0393 46.8605 98.883 47.0208 98.7783 47.2141C98.6692 47.4277 98.6123 47.6642 98.6123 47.904C98.6123 48.1439 98.6692 48.3803 98.7783 48.5939C98.886 48.7882 99.0457 48.9486 99.2396 49.0571C99.4381 49.1656 99.6608 49.2224 99.887 49.2224C100.113 49.2224 100.336 49.1656 100.534 49.0571L100.525 49.061Z" fill="#F0E7DA"/>
<path d="M106.587 49.1846V50.6474H105.952V49.7771H102.82V50.6474H102.175V49.1846H102.368C102.608 49.1692 102.774 48.9916 102.862 48.6751C102.973 48.2228 103.037 47.7605 103.055 47.2953L103.111 46.0312H106.018V49.1846H106.587ZM103.557 48.515C103.527 48.7673 103.414 49.0026 103.237 49.1846H105.336V46.6237H103.71L103.675 47.3455C103.664 47.7376 103.625 48.1285 103.557 48.515Z" fill="#F0E7DA"/>
<path d="M107.482 45.1816C107.44 45.1416 107.407 45.0934 107.384 45.0399C107.362 44.9865 107.35 44.9289 107.351 44.8709C107.35 44.8122 107.362 44.7541 107.384 44.7C107.407 44.6459 107.44 44.597 107.482 44.5563C107.525 44.5132 107.577 44.4794 107.633 44.4568C107.689 44.4342 107.75 44.4234 107.811 44.4251C107.933 44.4209 108.051 44.4654 108.141 44.5486C108.182 44.5877 108.216 44.6353 108.238 44.6882C108.26 44.7411 108.271 44.7981 108.27 44.8554C108.271 44.9151 108.261 44.9745 108.238 45.0299C108.216 45.0853 108.183 45.1356 108.141 45.1777C108.051 45.261 107.934 45.3073 107.812 45.3073C107.689 45.3073 107.572 45.261 107.482 45.1777V45.1816ZM107.471 46.0307H108.15V49.7765H107.471V46.0307Z" fill="#F0E7DA"/>
<path d="M112.75 48.7438C112.758 48.8932 112.728 49.0424 112.664 49.1774C112.599 49.3123 112.501 49.4287 112.379 49.5157C112.046 49.7171 111.659 49.8108 111.271 49.784H109.469V46.0381H111.206C111.57 46.0175 111.931 46.1048 112.246 46.289C112.365 46.3642 112.462 46.4694 112.528 46.5941C112.594 46.7187 112.626 46.8584 112.62 46.9992C112.625 47.1824 112.57 47.3622 112.462 47.5106C112.349 47.6602 112.196 47.7746 112.02 47.8406C112.232 47.8734 112.425 47.9841 112.56 48.1511C112.694 48.3181 112.762 48.5294 112.75 48.7438ZM110.133 47.6418H111.152C111.358 47.6555 111.564 47.6064 111.742 47.5009C111.806 47.4541 111.858 47.3919 111.891 47.3201C111.925 47.2483 111.94 47.1691 111.935 47.0899C111.935 46.7335 111.671 46.5547 111.144 46.5534H110.125L110.133 47.6418ZM111.858 49.1201C111.928 49.0758 111.984 49.0136 112.022 48.9399C112.059 48.8662 112.076 48.7837 112.07 48.7013C112.077 48.6192 112.062 48.5368 112.028 48.4616C111.995 48.3865 111.943 48.3209 111.877 48.271C111.693 48.1626 111.48 48.1134 111.267 48.1301H110.135V49.2494H111.225C111.445 49.2652 111.665 49.2204 111.862 49.1201H111.858Z" fill="#F0E7DA"/>
<path d="M117.031 46.0312V49.7771H116.352V46.6237H114.739L114.696 47.4593C114.682 47.8827 114.637 48.3044 114.563 48.7215C114.516 49.0118 114.404 49.288 114.237 49.5301C114.165 49.6288 114.07 49.7084 113.961 49.7616C113.851 49.8148 113.73 49.84 113.608 49.835C113.466 49.8321 113.326 49.8107 113.191 49.7713L113.233 49.1923C113.289 49.2054 113.346 49.2126 113.403 49.2136C113.49 49.2168 113.576 49.1953 113.651 49.1516C113.726 49.1078 113.788 49.0437 113.828 48.9666C113.929 48.788 113.995 48.5913 114.021 48.3876C114.05 48.1599 114.075 47.8376 114.098 47.4227L114.161 46.037L117.031 46.0312Z" fill="#F0E7DA"/>
<path d="M118.356 45.1816C118.314 45.1415 118.281 45.0933 118.258 45.0398C118.236 44.9863 118.225 44.9288 118.226 44.8709C118.225 44.8124 118.236 44.7543 118.258 44.7002C118.28 44.646 118.314 44.5971 118.356 44.5563C118.399 44.5133 118.45 44.4795 118.507 44.4569C118.564 44.4343 118.625 44.4235 118.686 44.4251C118.746 44.423 118.806 44.4328 118.862 44.454C118.918 44.4752 118.97 44.5074 119.014 44.5486C119.056 44.5876 119.089 44.6352 119.112 44.688C119.135 44.7409 119.146 44.7979 119.145 44.8554C119.146 44.9153 119.135 44.9747 119.112 45.0301C119.09 45.0855 119.056 45.1358 119.014 45.1777C118.971 45.2208 118.92 45.2547 118.863 45.2772C118.807 45.2998 118.746 45.3106 118.686 45.309C118.625 45.3108 118.564 45.3005 118.508 45.2786C118.451 45.2567 118.399 45.2237 118.356 45.1816ZM118.356 46.0307H119.035V49.7765H118.346L118.356 46.0307Z" fill="#F0E7DA"/>
<path d="M30.2423 17.2139H24.0668L16 39.521H21.6294L22.9571 35.5764H31.3288L32.6604 39.521H38.3495L30.2423 17.2139ZM24.362 31.4137L27.1468 23.1636L29.9258 31.4137H24.362Z" fill="#F0E7DA"/>
<path d="M57.6062 25.0901C57.1014 24.0167 56.2972 23.1119 55.2904 22.4848C54.226 21.8514 53.0046 21.531 51.7664 21.5605C50.9527 21.5578 50.1474 21.7254 49.4024 22.0526C48.6584 22.3761 47.9881 22.8475 47.432 23.4382C46.8632 24.0403 46.4435 24.7674 46.2066 25.561V21.7843H40.8242V39.5215H46.1969V30.2698C46.1854 29.5295 46.3253 28.7947 46.608 28.1104C46.86 27.5061 47.2741 26.9832 47.8045 26.5993C48.3479 26.22 48.9985 26.0246 49.661 26.0415C50.6992 26.0415 51.5252 26.3889 52.1389 27.0759C52.7526 27.763 53.0633 28.724 53.0633 29.9534V39.5215H58.4321V29.1274C58.4321 27.5603 58.1568 26.2146 57.6062 25.0901Z" fill="#F0E7DA"/>
<path d="M97.8457 25.788C97.0645 24.4562 95.9233 23.3719 94.5533 22.6597C93.0939 21.9361 91.487 21.5596 89.858 21.5596C88.2291 21.5596 86.6221 21.9361 85.1627 22.6597C83.7856 23.3674 82.6383 24.4524 81.855 25.788C81.0521 27.1453 80.6501 28.7657 80.6488 30.6493C80.6475 32.5328 81.0451 34.141 81.8414 35.4739C82.6094 36.8115 83.7374 37.9067 85.0971 38.635C86.5236 39.3874 88.1161 39.7696 89.7287 39.7466C91.3804 39.7719 93.0128 39.3902 94.4819 38.635C95.8657 37.9163 97.0213 36.8255 97.8186 35.4855C98.633 34.1346 99.0402 32.5264 99.0402 30.6608C99.0402 28.7953 98.642 27.171 97.8457 25.788ZM93.0423 33.1214C92.7282 33.7427 92.2365 34.2566 91.6296 34.5977C91.0606 34.9118 90.4211 35.0758 89.7712 35.0744C89.1307 35.0789 88.5003 34.9145 87.9436 34.5977C87.3581 34.2535 86.8921 33.7383 86.6082 33.1214C86.257 32.3377 86.0887 31.4844 86.1161 30.6261C86.1161 29.6277 86.291 28.8069 86.641 28.1636C86.9488 27.5601 87.4229 27.0572 88.0073 26.7143C88.4301 26.4667 88.8988 26.3075 89.385 26.2465C89.8712 26.1856 90.3646 26.224 90.8355 26.3595C91.3064 26.4951 91.7448 26.7249 92.1241 27.035C92.5035 27.3451 92.8158 27.7291 93.0423 28.1636C93.4051 28.8069 93.5858 29.6277 93.5845 30.6261C93.614 31.4882 93.4276 32.3439 93.0423 33.1156V33.1214Z" fill="#F0E7DA"/>
<path d="M118.732 25.0892C118.226 24.0164 117.422 23.1119 116.416 22.4839C115.35 21.8503 114.128 21.5299 112.888 21.5595C112.073 21.5572 111.267 21.7248 110.52 22.0516C109.777 22.3763 109.107 22.8476 108.55 23.4372C107.984 24.0413 107.565 24.7677 107.324 25.5601V21.7834H101.942V39.5206H107.311V30.2689C107.301 29.5283 107.442 28.7934 107.726 28.1094C107.978 27.5062 108.39 26.9835 108.919 26.5983C109.464 26.2196 110.115 26.0243 110.779 26.0406C111.817 26.0406 112.643 26.388 113.257 27.075C113.871 27.762 114.177 28.7231 114.177 29.9524V39.5206H119.55V29.1264C119.55 27.5594 119.277 26.2136 118.732 25.0892Z" fill="#F0E7DA"/>
<path d="M135.634 21.7839V25.7247C135.251 24.5025 134.495 23.4309 133.472 22.6601C132.448 21.9179 131.209 21.5315 129.944 21.5601C128.377 21.5601 127.021 21.9634 125.874 22.7701C124.709 23.6033 123.792 24.7372 123.221 26.0508C122.603 27.5118 122.285 29.0818 122.285 30.668C122.285 32.2541 122.603 33.8242 123.221 35.2851C123.797 36.5862 124.713 37.7081 125.872 38.5331C127.017 39.3372 128.374 39.7399 129.942 39.7411C131.219 39.7778 132.471 39.3883 133.501 38.6342C134.531 37.88 135.281 36.8042 135.632 35.5765V36.7865C135.632 37.653 135.867 38.3304 136.344 38.8013C136.82 39.2722 137.471 39.5211 138.303 39.5211H141.004V21.7839H135.634ZM135.089 33.0176C134.84 33.4715 134.503 33.8712 134.098 34.1931C133.692 34.515 133.226 34.7527 132.728 34.8922C132.229 35.0317 131.707 35.0702 131.194 35.0054C130.68 34.9407 130.184 34.774 129.736 34.5151C129.127 34.161 128.631 33.6418 128.304 33.0176C127.937 32.2837 127.758 31.4699 127.783 30.6496C127.764 29.8305 127.942 29.0188 128.304 28.2836C128.624 27.6473 129.121 27.1172 129.736 26.7571C130.184 26.4909 130.682 26.319 131.199 26.2519C131.715 26.1847 132.24 26.2238 132.742 26.3667C133.243 26.5097 133.71 26.7534 134.113 27.083C134.517 27.4126 134.849 27.8212 135.089 28.2836C135.466 29.0143 135.653 29.8278 135.634 30.6496C135.659 31.4727 135.472 32.2884 135.089 33.0176Z" fill="#F0E7DA"/>
<path d="M82.4856 20.7764L82.1787 21.1141C81.5836 21.7615 80.8608 22.2786 80.0559 22.6329C79.144 23.0516 78.1531 23.2707 77.1496 23.2755H71.142C71.1999 23.0381 71.2481 22.8027 71.2886 22.5595C71.394 21.9703 71.4585 21.3745 71.4816 20.7764H82.4856Z" fill="#F0E7DA"/>
<path d="M80.1347 23.8486L79.8491 24.1902C79.4308 24.6903 78.9318 25.1169 78.3728 25.4523C77.411 26.0446 76.3064 26.3641 75.177 26.3767H69.9915C70.4168 25.5728 70.754 24.7251 70.9969 23.8486H80.1347Z" fill="#F0E7DA"/>
<path d="M79.8858 39.521H74.131C73.9546 38.6427 73.6448 37.7967 73.2124 37.0122C72.8051 36.2722 72.2965 35.5928 71.7013 34.9935C71.1375 34.4217 70.486 33.9436 69.7715 33.577C69.095 33.2248 68.3645 32.988 67.61 32.8765V39.5229H62.2412V16H67.61V29.3719C68.4273 28.676 69.1232 27.8491 69.6692 26.9249H77.8305L77.5526 27.2703C76.7197 28.3065 75.5654 29.0358 74.2719 29.3429C73.8869 29.435 73.4924 29.4816 73.0966 29.4819H67.9188C68.5209 29.5379 70.3813 29.7173 71.6396 30.1072C73.1969 30.6167 73.7508 31.0605 74.5768 31.6337C75.4807 32.2998 76.309 33.0627 77.047 33.909C77.7561 34.705 78.3647 35.5852 78.8591 36.5297C79.3481 37.4702 79.6941 38.4784 79.8858 39.521Z" fill="#F0E7DA"/>
</svg>
